<svg id="Layer_1" data-name="Layer 1" xmlns="http://www.w3.org/2000/svg" viewBox="0 0 122.88 122.88"><defs><style>.cls-1{fill:#fd5;}.cls-2{fill:#262626;fill-rule:evenodd;}</style></defs><title>number-eleven</title><path class="cls-1" d="M61.44,0A61.46,61.46,0,1,1,18,18,61.21,61.21,0,0,1,61.44,0Zm0,7.78A53.66,53.66,0,1,1,7.78,61.44,53.65,53.65,0,0,1,61.44,7.78Z"/><path class="cls-2" d="M61.44,7.78A53.66,53.66,0,1,1,7.78,61.44,53.65,53.65,0,0,1,61.44,7.78Z"/><path class="cls-1" d="M58.06,40.33v42.8H46.43V51h-.24l-9.37,5.6V46.77l10.54-6.44Zm28,0v42.8H74.43V51h-.24l-9.37,5.6V46.77l10.54-6.44Z"/></svg>