<svg id="Layer_1" data-name="Layer 1" xmlns="http://www.w3.org/2000/svg" viewBox="0 0 122.88 122.88"><defs><style>.cls-1{fill:#fd5;}.cls-2{fill:#262626;fill-rule:evenodd;}</style></defs><title>number-twelve</title><path class="cls-1" d="M61.44,0A61.46,61.46,0,1,1,18,18,61.21,61.21,0,0,1,61.44,0Zm0,7.78A53.66,53.66,0,1,1,7.78,61.44,53.65,53.65,0,0,1,61.44,7.78Z"/><path class="cls-2" d="M61.44,7.78A53.66,53.66,0,1,1,7.78,61.44,53.65,53.65,0,0,1,61.44,7.78Z"/><path class="cls-1" d="M52.12,40.33v42.8H40.5V51h-.24l-9.37,5.6V46.77l10.53-6.44Zm7,42.8V74.77l16-13.21a35.26,35.26,0,0,0,2.73-2.47,9.85,9.85,0,0,0,1.75-2.39A6,6,0,0,0,80.21,54a5.32,5.32,0,0,0-.7-2.82,4.64,4.64,0,0,0-1.94-1.81,6.65,6.65,0,0,0-5.67,0A4.36,4.36,0,0,0,70,51.25a6.31,6.31,0,0,0-.67,3h-11a14.45,14.45,0,0,1,2-7.78,13.22,13.22,0,0,1,5.73-5,19.85,19.85,0,0,1,8.67-1.76,22.08,22.08,0,0,1,8.91,1.64A13.3,13.3,0,0,1,89.47,46a11.88,11.88,0,0,1,2.06,7,12.46,12.46,0,0,1-1,4.91,20.49,20.49,0,0,1-3.68,5.38,76.18,76.18,0,0,1-7.54,7l-4,3.35v.25H92v9.28Z"/></svg>