<svg xmlns="http://www.w3.org/2000/svg" shape-rendering="geometricPrecision" text-rendering="geometricPrecision" image-rendering="optimizeQuality" fill-rule="evenodd" clip-rule="evenodd" viewBox="0 0 512 512"><path fill="#FD5" fill-rule="nonzero" d="M255.927 0h.072C397.361 0 512 114.638 512 255.999 512 397.361 397.361 512 255.999 512 114.639 512 0 397.361 0 255.999c0-67.882 27.004-133.047 74.977-181.022C122.782 26.986 187.807 0 255.57 0h.371-.014zm0 32.407c123.42 0 223.51 100.09 223.51 223.51 0 123.418-100.09 223.509-223.51 223.509-123.418 0-223.509-100.091-223.509-223.509v-.041c0-123.398 100.072-223.469 223.469-223.469h.054-.014z"/><path fill="#262626" d="M255.93 32.411c123.42 0 223.511 100.09 223.511 223.51 0 123.418-100.091 223.509-223.511 223.509-123.418 0-223.508-100.091-223.508-223.509v-.041c0-123.397 100.071-223.469 223.469-223.469h.054-.015z"/><path fill="#FD5" fill-rule="nonzero" d="M216.717 172.116v169.908H170.58V214.592h-.973l-37.182 22.232v-39.128l41.816-25.58h42.476zM313.29 344.36c-13.355 0-25.231-2.336-35.626-6.931-10.356-4.632-18.493-11.017-24.411-19.115-5.918-8.138-8.915-17.482-8.954-28.072h46.447c.039 3.27 1.052 6.191 3.038 8.76 1.946 2.57 4.632 4.595 8.059 6.034 3.426 1.441 7.358 2.143 11.797 2.143 4.243 0 8.021-.74 11.291-2.259 3.231-1.558 5.802-3.659 7.63-6.346 1.831-2.726 2.687-5.841 2.649-9.305.038-3.427-.975-6.464-3.115-9.111-2.141-2.687-5.101-4.75-8.916-6.23-3.816-1.519-8.215-2.257-13.2-2.257h-17.247v-31.848h17.247c4.595 0 8.644-.741 12.149-2.259 3.504-1.48 6.268-3.543 8.215-6.191 1.986-2.686 2.92-5.723 2.881-9.15.039-3.309-.74-6.229-2.414-8.799-1.675-2.53-3.971-4.516-6.931-5.957-2.958-1.439-6.385-2.141-10.239-2.141-4.205 0-7.942.74-11.253 2.22-3.27 1.517-5.878 3.582-7.747 6.229-1.869 2.648-2.842 5.685-2.92 9.111h-44.112c.038-10.396 2.919-19.584 8.564-27.527 5.686-7.981 13.472-14.211 23.361-18.766 9.89-4.516 21.258-6.774 34.107-6.774 12.536 0 23.633 2.101 33.288 6.385 9.656 4.244 17.209 10.083 22.66 17.52 5.452 7.437 8.137 15.963 8.098 25.541.118 9.5-3.154 17.286-9.772 23.361-6.58 6.112-14.951 9.694-25.073 10.785v1.361c13.704 1.48 24.022 5.646 30.953 12.538 6.891 6.891 10.316 15.535 10.2 25.93.039 9.967-2.92 18.766-8.916 26.475-6.034 7.67-14.328 13.704-24.996 18.065-10.629 4.399-22.892 6.58-36.792 6.58z"/></svg>