<svg xmlns="http://www.w3.org/2000/svg" shape-rendering="geometricPrecision" text-rendering="geometricPrecision" image-rendering="optimizeQuality" fill-rule="evenodd" clip-rule="evenodd" viewBox="0 0 512 512"><path fill="#FD5" fill-rule="nonzero" d="M255.927 0h.072C397.361 0 512 114.638 512 255.999 512 397.361 397.361 512 255.999 512 114.639 512 0 397.361 0 255.999c0-67.882 27.004-133.047 74.977-181.022C122.782 26.986 187.807 0 255.57 0h.371-.014zm0 32.407c123.42 0 223.51 100.09 223.51 223.51 0 123.418-100.09 223.509-223.51 223.509-123.418 0-223.509-100.091-223.509-223.509v-.041c0-123.398 100.072-223.469 223.469-223.469h.054-.014z"/><path fill="#262626" d="M255.999 32.49c123.42 0 223.511 100.09 223.511 223.51 0 123.419-100.091 223.509-223.511 223.509C132.581 479.509 32.49 379.419 32.49 256v-.04c0-123.398 100.072-223.47 223.47-223.47h.053-.014z"/><path fill="#FD5" fill-rule="nonzero" d="M210.691 171.046v169.909h-46.137V213.523h-.973L126.4 235.754v-39.128l41.815-25.58h42.476zm28.555 143.355v-35.818l68.369-107.537h32.509v47.811h-18.571l-36.832 58.401v1.325h100.878v35.818H239.246zm82.617 26.554v-37.494l1.013-15.612V171.046h43.139v169.909h-44.152z"/></svg>