<svg xmlns="http://www.w3.org/2000/svg" shape-rendering="geometricPrecision" text-rendering="geometricPrecision" image-rendering="optimizeQuality" fill-rule="evenodd" clip-rule="evenodd" viewBox="0 0 512 512"><path fill="#FD5" fill-rule="nonzero" d="M255.927 0h.072C397.361 0 512 114.638 512 255.999 512 397.361 397.361 512 255.999 512 114.639 512 0 397.361 0 255.999c0-67.882 27.004-133.047 74.977-181.022C122.782 26.986 187.807 0 255.57 0h.371-.014zm0 32.407c123.42 0 223.51 100.09 223.51 223.51 0 123.418-100.09 223.509-223.51 223.509-123.418 0-223.509-100.091-223.509-223.509v-.041c0-123.398 100.072-223.469 223.469-223.469h.054-.014z"/><path fill="#262626" d="M255.93 32.411c123.42 0 223.511 100.09 223.511 223.51 0 123.418-100.091 223.509-223.511 223.509-123.418 0-223.508-100.091-223.508-223.509v-.041c0-123.397 100.071-223.469 223.469-223.469h.054-.015z"/><path fill="#FD5" fill-rule="nonzero" d="M214.749 172.116v169.908h-46.137V214.592h-.973l-37.182 22.232v-39.128l41.816-25.58h42.476zm98.247 172.244c-13.044 0-24.646-2.336-34.729-6.931-10.084-4.632-18.026-11.017-23.789-19.115-5.801-8.138-8.722-17.482-8.838-28.072h44.774c.195 5.879 2.452 10.551 6.852 14.054 4.4 3.466 9.656 5.218 15.73 5.218 4.711 0 8.838-1.012 12.458-3.037 3.582-2.024 6.386-4.866 8.449-8.604 2.024-3.699 3.037-7.982 2.998-12.926.039-4.984-.974-9.306-2.998-12.966-2.063-3.698-4.867-6.54-8.449-8.564-3.62-2.025-7.747-3.038-12.458-3.038-4.867 0-9.344 1.207-13.472 3.543-4.126 2.336-7.163 5.606-9.11 9.733l-40.452-7.941 6.617-93.598h114.156v36.831h-76.311l-3.348 37.493h1.011c2.649-5.139 7.243-9.382 13.784-12.809 6.501-3.386 14.093-5.1 22.737-5.1 10.084 0 19.117 2.375 27.06 7.047 7.942 4.712 14.211 11.213 18.843 19.468 4.595 8.254 6.893 17.791 6.852 28.578.041 11.835-2.762 22.348-8.448 31.497-5.645 9.149-13.588 16.312-23.828 21.452-10.239 5.178-22.269 7.787-36.091 7.787z"/></svg>