<svg xmlns="http://www.w3.org/2000/svg" shape-rendering="geometricPrecision" text-rendering="geometricPrecision" image-rendering="optimizeQuality" fill-rule="evenodd" clip-rule="evenodd" viewBox="0 0 512 512"><path fill="#FD5" fill-rule="nonzero" d="M255.927 0h.072C397.361 0 512 114.638 512 255.999 512 397.361 397.361 512 255.999 512 114.639 512 0 397.361 0 255.999c0-67.882 27.004-133.047 74.977-181.022C122.782 26.986 187.807 0 255.57 0h.371-.014zm0 32.407c123.42 0 223.51 100.09 223.51 223.51 0 123.418-100.09 223.509-223.51 223.509-123.418 0-223.509-100.091-223.509-223.509v-.041c0-123.398 100.072-223.469 223.469-223.469h.054-.014z"/><path fill="#262626" d="M255.93 32.411c123.42 0 223.511 100.09 223.511 223.51 0 123.418-100.091 223.509-223.511 223.509-123.418 0-223.508-100.091-223.508-223.509v-.041c0-123.397 100.071-223.469 223.469-223.469h.054-.015z"/><path fill="#FD5" fill-rule="nonzero" d="M213.426 172.116v169.908h-46.137V214.592h-.973l-37.182 22.232v-39.128l41.816-25.58h42.476zM314.67 344.36c-9.927 0-19.311-1.557-28.187-4.711-8.878-3.115-16.742-8.059-23.594-14.795-6.854-6.736-12.226-15.534-16.12-26.397-3.894-10.823-5.841-23.944-5.762-39.401.039-13.745 1.83-26.164 5.334-37.143 3.504-11.019 8.526-20.401 15.029-28.15 6.501-7.709 14.289-13.666 23.321-17.794 9.072-4.087 19.194-6.15 30.29-6.15 12.499 0 23.517 2.375 33.017 7.202 9.5 4.828 17.092 11.252 22.776 19.272 5.684 8.061 8.994 16.937 9.928 26.593h-45.474c-1.052-4.789-3.466-8.333-7.242-10.551-3.816-2.258-8.138-3.388-13.005-3.388-9.655 0-16.78 4.206-21.257 12.615-4.516 8.41-6.814 19.468-6.93 33.21h.973c2.18-5.216 5.451-9.655 9.812-13.392 4.361-3.7 9.46-6.542 15.262-8.527 5.8-1.986 11.952-2.997 18.415-2.997 10.279 0 19.272 2.334 26.982 6.968 7.708 4.672 13.743 11.019 18.065 19.078 4.322 8.098 6.424 17.325 6.385 27.722.039 12.146-2.803 22.815-8.604 31.925-5.763 9.15-13.783 16.235-24.023 21.258-10.2 5.023-22.036 7.553-35.391 7.553zm-.349-34.846c4.593 0 8.681-1.051 12.224-3.153 3.582-2.103 6.385-4.984 8.41-8.644 1.985-3.659 2.998-7.787 2.92-12.419.078-4.712-.935-8.878-2.92-12.499-2.025-3.621-4.828-6.502-8.41-8.604-3.543-2.103-7.631-3.153-12.224-3.153-3.388 0-6.465.622-9.346 1.789-2.841 1.208-5.294 2.883-7.396 5.062a23.41 23.41 0 00-4.946 7.709c-1.206 2.96-1.828 6.191-1.869 9.696.041 4.632 1.091 8.76 3.154 12.419 2.065 3.66 4.829 6.541 8.371 8.644 3.543 2.102 7.553 3.153 12.032 3.153z"/></svg>