<svg xmlns="http://www.w3.org/2000/svg" shape-rendering="geometricPrecision" text-rendering="geometricPrecision" image-rendering="optimizeQuality" fill-rule="evenodd" clip-rule="evenodd" viewBox="0 0 512 512"><path fill="#FD5" fill-rule="nonzero" d="M255.927 0h.072C397.361 0 512 114.638 512 255.999 512 397.361 397.361 512 255.999 512 114.639 512 0 397.361 0 255.999c0-67.882 27.004-133.047 74.977-181.022C122.782 26.986 187.807 0 255.57 0h.371-.014zm0 32.407c123.42 0 223.51 100.09 223.51 223.51 0 123.418-100.09 223.509-223.51 223.509-123.418 0-223.509-100.091-223.509-223.509v-.041c0-123.398 100.072-223.469 223.469-223.469h.054-.014z"/><path fill="#262626" d="M255.93 32.411c123.42 0 223.511 100.09 223.511 223.51 0 123.418-100.091 223.509-223.511 223.509-123.418 0-223.508-100.091-223.508-223.509v-.041c0-123.397 100.071-223.469 223.469-223.469h.054-.015z"/><path fill="#FD5" fill-rule="nonzero" d="M221.913 170.967v169.908h-46.137V213.444h-.973l-37.181 22.231v-39.128l41.815-25.58h42.476zm37.859 169.908l66.695-132.064v-1.013H248.17v-36.831h126.07v36.831l-67.006 133.077h-47.462z"/></svg>