<svg xmlns="http://www.w3.org/2000/svg" shape-rendering="geometricPrecision" text-rendering="geometricPrecision" image-rendering="optimizeQuality" fill-rule="evenodd" clip-rule="evenodd" viewBox="0 0 512 512"><path fill="#FD5" fill-rule="nonzero" d="M255.927 0h.072C397.361 0 512 114.638 512 255.999 512 397.361 397.361 512 255.999 512 114.639 512 0 397.361 0 255.999c0-67.882 27.004-133.047 74.977-181.022C122.782 26.986 187.807 0 255.57 0h.371-.014zm0 32.407c123.42 0 223.51 100.09 223.51 223.51 0 123.418-100.09 223.509-223.51 223.509-123.418 0-223.509-100.091-223.509-223.509v-.041c0-123.398 100.072-223.469 223.469-223.469h.054-.014z"/><path fill="#262626" d="M255.93 32.411c123.42 0 223.511 100.09 223.511 223.51 0 123.418-100.091 223.509-223.511 223.509-123.418 0-223.508-100.091-223.508-223.509v-.041c0-123.397 100.071-223.469 223.469-223.469h.054-.015z"/><path fill="#FD5" fill-rule="nonzero" d="M212.628 170.967v169.908h-46.137V213.444h-.973l-37.182 22.231v-39.128l41.816-25.58h42.476zm99.57 172.245c-13.704 0-25.969-2.142-36.715-6.385-10.746-4.284-19.194-10.045-25.385-17.366-6.152-7.28-9.228-15.534-9.228-24.723 0-7.007 1.753-13.431 5.258-19.233 3.502-5.802 8.252-10.63 14.21-14.483 5.995-3.855 12.654-6.308 20.012-7.398v-1.362c-9.695-1.635-17.637-5.957-23.866-12.889-6.23-6.929-9.306-15.145-9.306-24.605 0-8.878 2.803-16.82 8.448-23.75 5.647-6.93 13.356-12.42 23.127-16.391 9.812-3.972 20.947-5.957 33.445-5.957 12.499 0 23.634 1.985 33.444 5.995 9.773 4.011 17.482 9.501 23.127 16.43 5.645 6.932 8.449 14.834 8.449 23.673 0 9.539-3.114 17.754-9.422 24.644-6.307 6.932-14.211 11.215-23.75 12.85v1.362c7.32 1.09 13.938 3.543 19.934 7.398 5.957 3.853 10.707 8.681 14.251 14.483 3.542 5.802 5.294 12.226 5.294 19.233 0 9.189-3.076 17.443-9.227 24.723-6.19 7.321-14.64 13.082-25.386 17.366-10.746 4.243-23.009 6.385-36.714 6.385zm0-31.887c4.361 0 8.254-.857 11.602-2.649 3.388-1.751 6.075-4.204 8.02-7.319 1.947-3.153 2.96-6.658 2.96-10.59 0-3.933-1.013-7.397-2.96-10.434-1.945-3.077-4.632-5.452-8.02-7.203-3.348-1.713-7.241-2.608-11.602-2.608-4.322 0-8.176.895-11.564 2.608-3.425 1.751-6.073 4.126-8.059 7.203-1.947 3.037-2.958 6.501-2.958 10.434 0 3.932 1.011 7.437 2.958 10.552 1.986 3.074 4.634 5.528 8.059 7.319 3.388 1.791 7.242 2.687 11.564 2.687zm0-72.651c3.854 0 7.32-.818 10.279-2.414 2.998-1.596 5.333-3.816 7.047-6.619 1.713-2.842 2.569-5.996 2.569-9.539 0-3.544-.856-6.697-2.569-9.423-1.714-2.724-4.049-4.905-7.047-6.463-2.959-1.596-6.425-2.375-10.279-2.375-3.815 0-7.242.779-10.239 2.375-3.037 1.558-5.374 3.739-7.086 6.463-1.713 2.726-2.571 5.879-2.571 9.423 0 3.543.858 6.697 2.571 9.5 1.712 2.764 4.049 4.983 7.086 6.618 2.997 1.636 6.424 2.454 10.239 2.454z"/></svg>