<svg id="Layer_1" data-name="Layer 1" xmlns="http://www.w3.org/2000/svg" viewBox="0 0 122.88 122.88"><defs><style>.cls-1{fill:#fd5;}.cls-2{fill:#262626;fill-rule:evenodd;}</style></defs><title>number-six</title><path class="cls-1" d="M61.44,0A61.46,61.46,0,1,1,18,18,61.21,61.21,0,0,1,61.44,0Zm0,7.78A53.66,53.66,0,1,1,7.78,61.44,53.65,53.65,0,0,1,61.44,7.78Z"/><path class="cls-2" d="M61.44,7.78A53.66,53.66,0,1,1,7.78,61.44,53.65,53.65,0,0,1,61.44,7.78Z"/><path class="cls-1" d="M62.15,83.72a21.27,21.27,0,0,1-7.09-1.19,15.85,15.85,0,0,1-5.93-3.73,17.46,17.46,0,0,1-4.05-6.65,29.65,29.65,0,0,1-1.49-9.92,31.66,31.66,0,0,1,1.34-9.45,20.74,20.74,0,0,1,3.79-7.13,16.41,16.41,0,0,1,5.87-4.52,18.42,18.42,0,0,1,7.63-1.55,18.08,18.08,0,0,1,8.32,1.83,15.29,15.29,0,0,1,5.74,4.9,14.06,14.06,0,0,1,2.5,6.81H67.32a4,4,0,0,0-1.82-2.81,6.3,6.3,0,0,0-3.28-.87,5.66,5.66,0,0,0-5.35,3.2,18.46,18.46,0,0,0-1.75,8.51h.25a8.81,8.81,0,0,1,2.47-3.37,11.82,11.82,0,0,1,3.84-2.15,14.33,14.33,0,0,1,4.64-.76,12.92,12.92,0,0,1,6.8,1.76,12.43,12.43,0,0,1,4.55,4.8,14.48,14.48,0,0,1,1.61,7,14.27,14.27,0,0,1-8.22,13.39,19.9,19.9,0,0,1-8.91,1.91Zm-.09-8.78a6.06,6.06,0,0,0,3.08-.79A5.69,5.69,0,0,0,67.26,72a7.12,7.12,0,0,0,0-6.28,5.74,5.74,0,0,0-2.12-2.17,6,6,0,0,0-3.08-.79,6.28,6.28,0,0,0-2.36.45,5.58,5.58,0,0,0-1.86,1.28,5.84,5.84,0,0,0-1.25,1.94,6.67,6.67,0,0,0-.47,2.44,6.36,6.36,0,0,0,.8,3.13A5.74,5.74,0,0,0,59,74.15a5.9,5.9,0,0,0,3,.79Z"/></svg>