<svg id="Layer_1" data-name="Layer 1" xmlns="http://www.w3.org/2000/svg" viewBox="0 0 122.88 122.88"><defs><style>.cls-1{fill:#fd5;}.cls-2{fill:#262626;fill-rule:evenodd;}</style></defs><title>number-seven</title><path class="cls-1" d="M61.44,0A61.46,61.46,0,1,1,18,18,61.21,61.21,0,0,1,61.44,0Zm0,7.78A53.66,53.66,0,1,1,7.78,61.44,53.65,53.65,0,0,1,61.44,7.78Z"/><path class="cls-2" d="M61.44,7.78A53.66,53.66,0,1,1,7.78,61.44,53.65,53.65,0,0,1,61.44,7.78Z"/><polygon class="cls-1" points="48.11 83.13 64.91 49.86 64.91 49.61 45.19 49.61 45.19 40.33 76.94 40.33 76.94 49.61 60.07 83.13 48.11 83.13 48.11 83.13"/></svg>