<svg id="Layer_1" data-name="Layer 1" xmlns="http://www.w3.org/2000/svg" viewBox="0 0 122.88 122.88"><defs><style>.cls-1{fill:#fd5;}.cls-2{fill:#262626;fill-rule:evenodd;}</style></defs><title>number-eight</title><path class="cls-1" d="M61.44,0A61.46,61.46,0,1,1,18,18,61.21,61.21,0,0,1,61.44,0Zm0,7.78A53.66,53.66,0,1,1,7.78,61.44,53.65,53.65,0,0,1,61.44,7.78Z"/><path class="cls-2" d="M61.44,7.78A53.66,53.66,0,1,1,7.78,61.44,53.65,53.65,0,0,1,61.44,7.78Z"/><path class="cls-1" d="M61.44,83.42a25.09,25.09,0,0,1-9.25-1.61,15.92,15.92,0,0,1-6.39-4.37,9.39,9.39,0,0,1-2.33-6.23,9.13,9.13,0,0,1,1.33-4.84,11.23,11.23,0,0,1,3.58-3.65,12.51,12.51,0,0,1,5-1.86v-.35a10.08,10.08,0,0,1-6-3.24,9,9,0,0,1-2.35-6.2,9.2,9.2,0,0,1,2.13-6A14.16,14.16,0,0,1,53,41a22.26,22.26,0,0,1,8.42-1.5A22.06,22.06,0,0,1,69.86,41a14.27,14.27,0,0,1,5.83,4.14,9.17,9.17,0,0,1,2.13,6,8.89,8.89,0,0,1-2.38,6.21,10.16,10.16,0,0,1-6,3.23v.35a12.48,12.48,0,0,1,5,1.86,11.37,11.37,0,0,1,3.59,3.65,9.14,9.14,0,0,1,1.34,4.84,9.39,9.39,0,0,1-2.33,6.23,15.92,15.92,0,0,1-6.39,4.37,25.06,25.06,0,0,1-9.25,1.61Zm0-8a6.11,6.11,0,0,0,2.92-.67,5.13,5.13,0,0,0,2-1.84,5,5,0,0,0,.75-2.67,4.79,4.79,0,0,0-.75-2.63,5.14,5.14,0,0,0-2-1.81,6.77,6.77,0,0,0-5.83,0,5.1,5.1,0,0,0-2,1.81,4.79,4.79,0,0,0-.75,2.63,4.91,4.91,0,0,0,.75,2.66,5.24,5.24,0,0,0,2,1.84,6.13,6.13,0,0,0,2.91.68Zm0-18.3A5.44,5.44,0,0,0,64,56.48a4.57,4.57,0,0,0,1.77-1.66,4.51,4.51,0,0,0,.65-2.41A4.31,4.31,0,0,0,65.8,50,4.49,4.49,0,0,0,64,48.41a5.87,5.87,0,0,0-5.17,0A4.45,4.45,0,0,0,57.08,50a4.31,4.31,0,0,0-.65,2.37,4.46,4.46,0,0,0,.65,2.4,4.67,4.67,0,0,0,1.78,1.66,5.35,5.35,0,0,0,2.58.62Z"/></svg>