<svg id="Layer_1" data-name="Layer 1" xmlns="http://www.w3.org/2000/svg" viewBox="0 0 122.88 122.88"><defs><style>.cls-1{fill:#fd5;}.cls-2{fill:#262626;fill-rule:evenodd;}</style></defs><title>number-nine</title><path class="cls-1" d="M61.44,0A61.46,61.46,0,1,1,18,18,61.21,61.21,0,0,1,61.44,0Zm0,7.78A53.66,53.66,0,1,1,7.78,61.44,53.65,53.65,0,0,1,61.44,7.78Z"/><path class="cls-2" d="M61.44,7.78A53.66,53.66,0,1,1,7.78,61.44,53.65,53.65,0,0,1,61.44,7.78Z"/><path class="cls-1" d="M60.73,39.58a21.31,21.31,0,0,1,7.09,1.18,16,16,0,0,1,5.93,3.73,17.61,17.61,0,0,1,4,6.65,29.69,29.69,0,0,1,1.49,9.92,31.45,31.45,0,0,1-1.35,9.46,20.86,20.86,0,0,1-3.77,7.14,16.33,16.33,0,0,1-5.87,4.5,18.22,18.22,0,0,1-7.65,1.56,18.09,18.09,0,0,1-8.33-1.83A15,15,0,0,1,46.59,77a14.19,14.19,0,0,1-2.49-6.84H55.56A4.12,4.12,0,0,0,57.39,73a6.22,6.22,0,0,0,3.26.86A5.66,5.66,0,0,0,66,70.66a18.14,18.14,0,0,0,1.73-8.51h-.25A8.8,8.8,0,0,1,65,65.51a11.58,11.58,0,0,1-3.85,2.15,14.23,14.23,0,0,1-4.63.76,12.93,12.93,0,0,1-6.79-1.75,12.11,12.11,0,0,1-4.56-4.8,14.52,14.52,0,0,1-1.61-7A14.23,14.23,0,0,1,51.79,41.5a19.87,19.87,0,0,1,8.94-1.92Zm.09,8.78a5.94,5.94,0,0,0-3.08.8,5.57,5.57,0,0,0-2.12,2.16,6.17,6.17,0,0,0-.73,3.14,6.09,6.09,0,0,0,.73,3.13,5.69,5.69,0,0,0,2.12,2.18,6.35,6.35,0,0,0,5.44.33A5.7,5.7,0,0,0,65,58.83a5.81,5.81,0,0,0,1.24-1.94A6.49,6.49,0,0,0,66,51.32a5.69,5.69,0,0,0-2.11-2.16,5.81,5.81,0,0,0-3-.8Z"/></svg>