<svg width="105" height="32" viewBox="0 0 105 32" fill="none" xmlns="http://www.w3.org/2000/svg">
<mask id="mask0_389_111" style="mask-type:luminance" maskUnits="userSpaceOnUse" x="1" y="1" width="103" height="30">
<path d="M1 18C1 8.61116 10.7994 1 22.8875 1H104V14C104 23.3888 94.2006 31 82.1125 31H1V18Z" fill="white"/>
</mask>
<g mask="url(#mask0_389_111)">
<path d="M1 18C1 8.61116 10.7994 1 22.8875 1H104V14C104 23.3888 94.2006 31 82.1125 31H1V18Z" fill="white"/>
</g>
<path d="M22.2778 3.93555C16.0015 4.16149 12.7314 4.71442 8.32921 8.26297C5.68611 10.511 4.40789 13.1505 3.86792 16.437C3.62515 18.2268 3.75699 20.9772 3.86792 28.9384" stroke="#226701" stroke-linecap="round"/>
<path d="M79.9404 28.7357C87.1264 28.6304 90.8814 28.124 96.0067 24.533C99.0869 22.2551 100.615 19.543 101.316 16.1444C101.638 14.2925 101.556 11.4363 101.629 3.17446" stroke="#226701" stroke-linecap="round"/>
<path d="M18.1232 15.4756H15.5288V7.36169H22.2861V8.39846H18.1232V10.9058H21.3385V11.937H18.1232V15.4756ZM30.5365 15.4756H23.7792V7.36169H26.3737V14.4444H30.5365V15.4756ZM50.1902 15.4756H47.5957V7.36169H52.2226C52.6582 7.36169 53.0786 7.40677 53.4838 7.49691C53.889 7.58332 54.2463 7.7223 54.5556 7.91388C54.8693 8.1017 55.1176 8.34588 55.3006 8.64639C55.4879 8.94691 55.5816 9.31128 55.5816 9.73952C55.5816 10.0738 55.4989 10.3894 55.3332 10.6861C55.1721 10.9791 54.9543 11.2421 54.6798 11.4749C54.4096 11.7041 54.0981 11.8957 53.7452 12.0497C53.3924 12.2 53.0264 12.2996 52.6473 12.3483C52.8173 12.5963 52.9937 12.8311 53.1767 13.0527C53.364 13.2743 53.5514 13.4828 53.7387 13.6782C53.9304 13.8697 54.1199 14.0481 54.3073 14.2134C54.4946 14.375 54.6732 14.5234 54.8432 14.6586C55.2439 14.9741 55.6404 15.2464 56.0325 15.4756H52.7977C52.5362 15.2614 52.288 15.0042 52.0526 14.7037C51.8522 14.4482 51.6497 14.1327 51.4449 13.757C51.2445 13.3777 51.0898 12.94 50.9809 12.4442H50.1902V15.4756ZM52.948 9.73952C52.948 9.19483 52.7933 8.79476 52.4839 8.53933C52.179 8.28389 51.7194 8.15617 51.1051 8.15617H50.1902V11.6779H51.1051C51.4318 11.6779 51.7107 11.6253 51.9415 11.52C52.1768 11.4111 52.3685 11.2684 52.5166 11.0918C52.6647 10.9115 52.7737 10.705 52.8434 10.472C52.9131 10.2391 52.948 9.99495 52.948 9.73952ZM66.3481 11.5933V11.7004C66.3394 12.0159 66.3001 12.3427 66.2304 12.6809C66.165 13.0189 66.0713 13.357 65.9494 13.695C65.8274 14.0331 65.6814 14.3675 65.5116 14.698C65.3416 15.0286 65.15 15.3441 64.9365 15.6447C64.7274 15.9489 64.5007 16.2325 64.2568 16.4954C64.0128 16.7622 63.7558 16.9969 63.4857 17.1998L62.5119 16.7153C62.6645 16.4936 62.8017 16.2513 62.9237 15.9883C63.05 15.7292 63.1632 15.4568 63.2635 15.1713C63.3637 14.8858 63.4487 14.5928 63.5184 14.2923C63.5924 13.9918 63.6534 13.6932 63.7013 13.3964C63.7492 13.0997 63.7841 12.8086 63.8059 12.523C63.832 12.2338 63.845 11.9596 63.845 11.7004C63.845 11.4975 63.8429 11.2684 63.8386 11.013C63.8386 10.7537 63.8212 10.4908 63.7863 10.2241C63.7558 9.95739 63.7035 9.69819 63.6295 9.44651C63.5554 9.19107 63.4443 8.96381 63.2962 8.76471C63.1524 8.56562 62.9651 8.40598 62.7342 8.28577C62.5075 8.16557 62.2244 8.10546 61.8845 8.10546C61.584 8.10546 61.3247 8.15054 61.1069 8.24069C60.8935 8.32709 60.7104 8.44542 60.558 8.59567C60.4099 8.74218 60.29 8.91309 60.1985 9.10843C60.1114 9.30376 60.0417 9.51038 59.9894 9.72825C59.9414 9.94236 59.9089 10.1602 59.8913 10.3819C59.8783 10.5997 59.8717 10.8063 59.8717 11.0017V12.5737H62.6883V13.5034H59.8717V15.4756H57.2774V11.351C57.2774 10.7613 57.3862 10.2128 57.604 9.70571C57.822 9.19859 58.129 8.75908 58.5255 8.3872C58.9264 8.01155 59.4056 7.71854 59.9633 7.50818C60.5253 7.29407 61.1504 7.18701 61.8388 7.18701C62.305 7.18701 62.7407 7.24524 63.1459 7.36169C63.5554 7.47438 63.9279 7.63215 64.2633 7.835C64.5988 8.03409 64.8972 8.27263 65.1587 8.5506C65.4245 8.82482 65.6444 9.12533 65.8187 9.45215C65.9973 9.77895 66.1324 10.1246 66.2239 10.4889C66.3154 10.8533 66.3568 11.2215 66.3481 11.5933ZM22.2861 26.0537H15.5288V17.9398H22.2861V18.9766H18.1232V21.484H21.3385V22.5152H18.1232V25.017H22.2861V26.0537ZM31.9873 26.0537H29.3405L27.1318 23.2082L24.8705 26.0537H23.0408L26.439 22.3236L23.0408 17.9398H25.6875L27.8245 20.6951L30.1575 17.9398H31.9873L28.5172 21.5854L31.9873 26.0537ZM37.5976 26.0537H35.0031V18.9766H32.4414V17.9398H40.1593V18.9766H37.5976V26.0537ZM44.2207 26.0537H41.6263V17.9398H46.2532C46.6888 17.9398 47.1093 17.9849 47.5144 18.075C47.9196 18.1615 48.2768 18.3004 48.5862 18.492C48.8998 18.6798 49.1482 18.924 49.3311 19.2245C49.5185 19.525 49.6122 19.8894 49.6122 20.3177C49.6122 20.652 49.5294 20.9675 49.3638 21.2642C49.2026 21.5573 48.9848 21.8203 48.7103 22.0531C48.4402 22.2822 48.1287 22.4738 47.7758 22.6279C47.4229 22.7782 47.057 22.8777 46.6779 22.9265C46.8479 23.1745 47.0243 23.4092 47.2072 23.6309C47.3946 23.8524 47.582 24.0609 47.7693 24.2563C47.961 24.4479 48.1506 24.6263 48.3378 24.7916C48.5252 24.9531 48.7038 25.1015 48.8737 25.2367C49.2746 25.5522 49.671 25.8246 50.0631 26.0537H46.8282C46.5668 25.8396 46.3185 25.5823 46.0832 25.2818C45.8828 25.0263 45.6802 24.7108 45.4755 24.3352C45.275 23.9558 45.1205 23.5182 45.0115 23.0223H44.2207V26.0537ZM46.9786 20.3177C46.9786 19.773 46.8239 19.3729 46.5146 19.1175C46.2096 18.862 45.7499 18.7343 45.1356 18.7343H44.2207V22.256H45.1356C45.4624 22.256 45.7412 22.2034 45.9721 22.0982C46.2074 21.9892 46.3991 21.8465 46.5473 21.67C46.6954 21.4897 46.8043 21.2831 46.874 21.0502C46.9437 20.8173 46.9786 20.5731 46.9786 20.3177ZM60.3786 22.1715V22.2785C60.3699 22.594 60.3307 22.9209 60.261 23.259C60.1956 23.597 60.102 23.9351 59.98 24.2731C59.858 24.6113 59.712 24.9456 59.5421 25.2761C59.3723 25.6068 59.1805 25.9223 58.9671 26.2228C58.758 26.5271 58.5313 26.8107 58.2874 27.0736C58.0434 27.3403 57.7864 27.5751 57.5163 27.778L56.5425 27.2934C56.695 27.0717 56.8322 26.8294 56.9543 26.5665C57.0806 26.3073 57.1938 26.035 57.2941 25.7495C57.3942 25.464 57.4792 25.1709 57.5489 24.8704C57.623 24.5699 57.684 24.2713 57.732 23.9746C57.7798 23.6778 57.8147 23.3867 57.8365 23.1012C57.8626 22.8119 57.8757 22.5378 57.8757 22.2785C57.8757 22.0757 57.8735 21.8465 57.8691 21.5911C57.8691 21.3318 57.8517 21.0689 57.8168 20.8023C57.7864 20.5355 57.7341 20.2763 57.66 20.0247C57.586 19.7692 57.4749 19.5419 57.3268 19.3429C57.183 19.1438 56.9956 18.9841 56.7648 18.8639C56.5381 18.7437 56.2549 18.6836 55.9151 18.6836C55.6145 18.6836 55.3553 18.7287 55.1375 18.8189C54.924 18.9052 54.741 19.0236 54.5885 19.1738C54.4404 19.3203 54.3206 19.4913 54.2291 19.6866C54.142 19.8819 54.0723 20.0885 54.02 20.3063C53.9721 20.5205 53.9394 20.7384 53.9219 20.96C53.9089 21.1779 53.9024 21.3845 53.9024 21.5799V23.1519H56.7189V24.0816H53.9024V26.0537H51.3079V21.9291C51.3079 21.3394 51.4168 20.7909 51.6347 20.2838C51.8525 19.7768 52.1597 19.3372 52.5561 18.9653C52.9569 18.5897 53.4362 18.2967 53.9939 18.0863C54.5559 17.8722 55.181 17.7652 55.8694 17.7652C56.3356 17.7652 56.7712 17.8234 57.1764 17.9398C57.586 18.0525 57.9585 18.2103 58.294 18.4131C58.6294 18.6122 58.9278 18.8508 59.1892 19.1287C59.455 19.403 59.675 19.7035 59.8493 20.0303C60.0279 20.3571 60.1629 20.7026 60.2545 21.0671C60.3459 21.4315 60.3873 21.7996 60.3786 22.1715ZM70.7529 19.9514L69.6355 20.3571C69.5484 20.113 69.4307 19.8894 69.2826 19.6866C69.1388 19.4838 68.9645 19.3109 68.7597 19.1681C68.5593 19.0217 68.3306 18.909 68.0736 18.8301C67.8165 18.7474 67.5355 18.7062 67.2305 18.7062C66.9038 18.7062 66.6031 18.7531 66.3286 18.847C66.0586 18.9372 65.8146 19.063 65.5968 19.2245C65.3833 19.386 65.1959 19.5739 65.0348 19.788C64.8736 20.0021 64.7385 20.2312 64.6296 20.4754C64.5206 20.7158 64.4401 20.9657 64.3878 21.2248C64.3355 21.484 64.3094 21.7376 64.3094 21.9855C64.3094 22.38 64.3617 22.7725 64.4662 23.1631C64.5751 23.5538 64.745 23.905 64.976 24.2168C65.2112 24.5287 65.514 24.7821 65.8843 24.9776C66.2546 25.1691 66.7034 25.2649 67.2305 25.2649C67.5093 25.2649 67.773 25.2255 68.0213 25.1465C68.2696 25.0639 68.4939 24.9531 68.6944 24.8141C68.8991 24.6714 69.0778 24.5042 69.2303 24.3127C69.3827 24.121 69.5048 23.9145 69.5962 23.6928L70.7268 24.0816C70.5613 24.4385 70.3347 24.7521 70.0471 25.0226C69.7596 25.2893 69.4307 25.5109 69.0604 25.6874C68.6944 25.864 68.3001 25.9956 67.8775 26.0819C67.4592 26.172 67.0367 26.2171 66.6097 26.2171C66.1478 26.2171 65.7035 26.1683 65.2766 26.0707C64.854 25.973 64.4597 25.834 64.0937 25.6537C63.7277 25.4734 63.3945 25.2555 63.0939 25.0001C62.7975 24.7446 62.5427 24.4611 62.3292 24.1492C62.1201 23.8374 61.9567 23.4994 61.8391 23.1349C61.7258 22.7668 61.6692 22.3837 61.6692 21.9855C61.6692 21.5874 61.7258 21.2061 61.8391 20.8417C61.9567 20.4736 62.1201 20.1336 62.3292 19.8218C62.5427 19.5063 62.7975 19.2207 63.0939 18.9653C63.3945 18.7099 63.7277 18.492 64.0937 18.3117C64.4597 18.1314 64.854 17.9924 65.2766 17.8947C65.7035 17.7971 66.1478 17.7483 66.6097 17.7483C67.054 17.7483 67.4876 17.7934 67.9102 17.8835C68.3371 17.9737 68.7336 18.1107 69.0995 18.2948C69.4655 18.4751 69.7902 18.7042 70.0733 18.9823C70.3609 19.2564 70.5874 19.5795 70.7529 19.9514ZM76.7554 26.0537H74.1609V18.9766H71.5991V17.9398H79.317V18.9766H76.7554V26.0537ZM88.404 23.5745C88.404 23.9239 88.3517 24.2319 88.2472 24.4986C88.1469 24.7653 88.0032 24.9963 87.8158 25.1916C87.6329 25.3869 87.415 25.5504 87.1623 25.6819C86.9096 25.8133 86.633 25.9185 86.3324 25.9974C86.0361 26.0762 85.7202 26.1326 85.3847 26.1664C85.0537 26.2002 84.716 26.2171 84.3718 26.2171C83.9187 26.2171 83.5005 26.1871 83.117 26.127C82.7337 26.0707 82.3721 25.9805 82.0323 25.8565C81.6968 25.7288 81.3722 25.5654 81.0585 25.3664C80.7492 25.1672 80.4399 24.925 80.1305 24.6394L81.4637 23.4731C81.5857 23.7322 81.7534 23.9726 81.9669 24.1943C82.1804 24.4122 82.4135 24.6 82.6661 24.7577C82.9232 24.9155 83.189 25.0395 83.4635 25.1297C83.7379 25.2198 83.9971 25.2649 84.2412 25.2649C84.5287 25.2649 84.7988 25.248 85.0515 25.2142C85.3042 25.1766 85.5241 25.1165 85.7115 25.0339C85.8989 24.9512 86.0448 24.8423 86.1494 24.707C86.2583 24.5681 86.3128 24.3953 86.3128 24.1886C86.3128 24.0309 86.2714 23.8957 86.1886 23.783C86.1058 23.6703 85.9969 23.5745 85.8618 23.4956C85.7311 23.413 85.5808 23.3434 85.4109 23.2871C85.241 23.2308 85.0667 23.1838 84.8881 23.1463C84.7138 23.1049 84.5418 23.0693 84.3718 23.0392C84.2019 23.0054 84.0516 22.9716 83.9209 22.9378C83.6639 22.8739 83.3959 22.8062 83.117 22.7349C82.8382 22.6598 82.5638 22.5753 82.2937 22.4814C82.0236 22.3875 81.7665 22.2804 81.5226 22.1602C81.2829 22.0363 81.0717 21.8916 80.8886 21.7263C80.7056 21.5573 80.5597 21.3638 80.4508 21.146C80.3419 20.9243 80.2874 20.6707 80.2874 20.3853C80.2874 20.0434 80.3353 19.741 80.4311 19.4781C80.5314 19.2114 80.6708 18.9803 80.8494 18.785C81.028 18.5897 81.2394 18.4263 81.4833 18.2948C81.7273 18.1596 81.9952 18.0525 82.2871 17.9737C82.579 17.891 82.8884 17.8328 83.2151 17.7989C83.5462 17.7614 83.8838 17.7426 84.228 17.7426C84.6986 17.7426 85.1255 17.7802 85.509 17.8553C85.8966 17.9304 86.2539 18.0375 86.5807 18.1765C86.9075 18.3154 87.2059 18.4827 87.4759 18.678C87.7504 18.8695 88.0075 19.0837 88.2472 19.3203L86.9139 20.4867C86.8094 20.2162 86.6634 19.9721 86.4762 19.7542C86.2931 19.5364 86.0884 19.3504 85.8618 19.1963C85.6353 19.0386 85.3979 18.9184 85.1495 18.8357C84.9012 18.7493 84.6615 18.7062 84.4307 18.7062C84.13 18.7062 83.8534 18.7249 83.6006 18.7625C83.348 18.7963 83.1302 18.8545 82.9472 18.9372C82.7685 19.016 82.6291 19.125 82.5289 19.264C82.4288 19.3992 82.3786 19.5683 82.3786 19.7711C82.3786 19.9327 82.4156 20.0697 82.4897 20.1824C82.5638 20.2951 82.6618 20.3909 82.7838 20.4698C82.9101 20.5487 83.0518 20.6145 83.2086 20.667C83.3654 20.7158 83.5266 20.759 83.6922 20.7966C83.8621 20.8342 84.0277 20.8679 84.1889 20.898C84.3544 20.9243 84.5047 20.9544 84.6398 20.9882C84.9012 21.052 85.1756 21.1196 85.4632 21.1911C85.7508 21.2624 86.0339 21.3469 86.3128 21.4446C86.5916 21.5385 86.8574 21.6475 87.11 21.7714C87.3627 21.8954 87.5849 22.0438 87.7766 22.2166C87.9684 22.3855 88.1208 22.5828 88.234 22.8082C88.3473 23.0298 88.404 23.2852 88.404 23.5745Z" fill="#226701"/>
<path fill-rule="evenodd" clip-rule="evenodd" d="M36.3814 5.64966C35.9138 5.60453 35.1071 5.56449 34.3321 5.65421C33.5572 5.74393 32.8141 5.96342 32.2128 6.30531C31.6114 6.6472 31.1518 7.11147 30.8884 7.56184C30.625 8.01222 30.5578 8.44867 30.5346 8.8939C30.5114 9.33913 30.5321 9.79311 30.7206 10.4719C30.9092 11.1507 31.2657 12.0543 31.7887 12.9106C32.3117 13.7669 33.0012 14.5759 33.6748 15.1305C34.3483 15.6852 35.0058 15.9855 35.6394 16.2177C36.2729 16.45 36.8824 16.6142 37.7416 16.6731C38.6008 16.7319 39.7095 16.6854 40.58 16.5474C41.4504 16.4095 42.0825 16.1802 42.7232 15.7749C43.364 15.3696 44.0133 14.7883 44.4699 14.2759C44.9265 13.7635 45.1903 13.32 45.345 13.0217C45.4997 12.7233 45.5453 12.5701 45.4291 12.4158C45.313 12.2615 45.0351 12.1061 44.78 11.9981C44.5248 11.8901 44.2924 11.8295 44.2862 11.8573C44.2801 11.8851 44.5003 12.0012 44.6807 12.1119C44.8611 12.2226 45.0018 12.3278 44.9997 12.4208C44.9977 12.5139 44.853 12.5949 44.4935 12.7076C44.1339 12.8204 43.5596 12.965 42.3621 13.0422C41.1645 13.1195 39.3439 13.1295 37.959 13.0481C36.5741 12.9668 35.625 12.794 34.8601 12.6044C34.0952 12.4147 33.5145 12.2081 33.24 12.0422C32.9654 11.8764 32.9969 11.7512 33.3038 11.6162C33.6107 11.4812 34.1929 11.3364 34.8333 11.2377C35.4736 11.139 36.172 11.0865 36.7386 11.0696C37.3052 11.0528 37.74 11.0717 38.2861 11.1039C38.8321 11.136 39.4894 11.1814 40.2089 11.2762C40.9284 11.3711 41.7102 11.5154 42.2542 11.6406C42.7982 11.7658 43.1045 11.872 43.0553 11.8428C43.0062 11.8135 42.6016 11.6488 42.1953 11.5187C41.7889 11.3885 41.3808 11.2929 40.8783 11.2006C40.3757 11.1084 39.7788 11.0195 38.893 10.9754C38.0071 10.9313 36.8324 10.9319 35.862 10.9839C34.8915 11.0358 34.1253 11.139 33.5596 11.1696C32.9938 11.2001 32.6285 11.1581 32.2967 10.9598C31.9649 10.7615 31.6666 10.4071 31.4978 9.97904C31.3289 9.55101 31.2895 9.04948 31.3103 8.62845C31.3311 8.20742 31.4122 7.86693 31.538 7.54894C31.6639 7.23094 31.8345 6.93548 32.1192 6.69793C32.4039 6.46037 32.8026 6.28076 33.1092 6.14233C33.4159 6.0039 33.6305 5.90666 34.2385 5.83894C34.8465 5.77121 35.8478 5.733 36.327 5.70553C36.8063 5.67806 36.8491 5.69479 36.3814 5.64966Z" fill="#416D19"/>
<path fill-rule="evenodd" clip-rule="evenodd" d="M33.0811 6.33011C33.1799 6.4944 33.3942 6.78641 34.0855 6.99464C34.7767 7.20288 35.9447 7.32732 36.8054 7.35538C37.666 7.38345 38.2191 7.31513 38.666 7.23461C39.1128 7.15408 39.4533 7.06137 40.0582 6.94831C40.6631 6.83526 41.5325 6.70189 42.1655 6.71547C42.7985 6.72905 43.1953 6.88957 43.404 7.01831C43.6127 7.14704 43.6333 7.24398 43.624 7.22019C43.6147 7.1964 43.5753 7.0519 43.3799 6.89943C43.1844 6.74696 42.8327 6.58653 42.4472 6.46198C42.0617 6.33743 41.6423 6.24877 41.0328 6.04177C40.4232 5.83477 39.6234 5.50945 39.01 5.2409C38.3965 4.97235 37.9692 4.76058 37.3672 4.60234C36.7652 4.4441 35.9885 4.33942 35.3503 4.32888C34.7121 4.31834 34.2125 4.40195 33.8262 4.56259C33.4399 4.72323 33.167 4.96089 33.0025 5.22441C32.8381 5.48794 32.7821 5.7773 32.8367 5.87176C32.8913 5.96622 33.0564 5.8658 33.4118 5.77182C33.7673 5.67785 34.313 5.59033 34.8079 5.53333C35.3027 5.47632 35.7467 5.44982 36.058 5.44926C36.3693 5.4487 36.5478 5.47407 36.4267 5.49209C36.3055 5.5101 35.8847 5.52076 35.5338 5.54619C35.1828 5.57162 34.9018 5.61184 34.5593 5.67355C34.2168 5.73526 33.8129 5.81847 33.5454 5.89192C33.278 5.96537 33.147 6.02907 33.0731 6.07918C32.9992 6.1293 32.9824 6.16583 33.0811 6.33011Z" fill="#416D19"/>
<path fill-rule="evenodd" clip-rule="evenodd" d="M32.2319 5.96453C32.1237 5.99289 31.9167 6.03011 31.565 5.87376C31.2133 5.71742 30.7169 5.36755 30.3786 5.08577C30.0402 4.80399 29.86 4.59037 29.7253 4.40823C29.5906 4.2261 29.5014 4.07551 29.3208 3.82742C29.1402 3.57934 28.868 3.23378 28.6222 3.02386C28.3764 2.81394 28.1569 2.73966 28.0223 2.71728C27.8878 2.69489 27.8382 2.72439 27.852 2.71859C27.8658 2.7128 27.9429 2.67171 28.0827 2.68067C28.2224 2.68962 28.4248 2.74862 28.6246 2.83265C28.8244 2.91667 29.0215 3.02572 29.3417 3.15478C29.662 3.28385 30.1052 3.43294 30.4534 3.54014C30.8016 3.64735 31.0548 3.71268 31.3511 3.85754C31.6475 4.00241 31.987 4.22682 32.2335 4.43964C32.4799 4.65246 32.6333 4.85368 32.7106 5.04543C32.7879 5.23718 32.789 5.41943 32.7596 5.56034C32.7301 5.70126 32.6702 5.80081 32.6113 5.81318C32.5524 5.82555 32.4945 5.75075 32.386 5.60299C32.2775 5.45523 32.1183 5.23451 31.9528 5.04961C31.7873 4.86471 31.6155 4.71564 31.4902 4.61555C31.365 4.51546 31.2864 4.46437 31.3245 4.5123C31.3627 4.56024 31.5176 4.70721 31.6397 4.83601C31.7618 4.9648 31.851 5.07542 31.9543 5.21502C32.0575 5.35462 32.1748 5.52318 32.2446 5.64171C32.3143 5.76023 32.3365 5.82871 32.343 5.8727C32.3494 5.91669 32.3401 5.93618 32.2319 5.96453Z" fill="#416D19"/>
<path fill-rule="evenodd" clip-rule="evenodd" d="M39.2213 10.7772C39.549 10.7934 40.2378 10.8525 40.8107 10.9263C41.3836 11.0001 41.8405 11.0886 42.3265 11.1971C42.8124 11.3056 43.3273 11.434 43.5255 11.5004C43.7236 11.5667 43.6051 11.571 43.3968 11.5331C43.1885 11.4951 42.8905 11.4148 42.4931 11.3294C42.0957 11.244 41.599 11.1534 41.1071 11.0749C40.6151 10.9964 40.1278 10.93 39.7708 10.8886C39.4138 10.8473 39.187 10.831 39.057 10.8094C38.9269 10.7879 38.8936 10.7611 39.2213 10.7772Z" fill="#416D19"/>
<path fill-rule="evenodd" clip-rule="evenodd" d="M40.1287 7.96965C40.2699 8.21255 40.322 8.56114 40.3583 8.87049C40.3946 9.17985 40.4151 9.44997 40.419 9.64983C40.4229 9.84969 40.41 9.97928 40.5063 10.0806C40.6025 10.182 40.8077 10.255 41.0188 10.2289C41.2299 10.2027 41.4468 10.0773 41.5444 9.88636C41.6419 9.69543 41.62 9.43895 41.5536 9.19574C41.4871 8.95254 41.3761 8.72262 41.1543 8.45887C40.9326 8.19513 40.6 7.89757 40.3103 7.72417C40.0206 7.55077 39.7737 7.50154 39.7654 7.54554C39.7571 7.58954 39.9875 7.72675 40.1287 7.96965Z" fill="#416D19"/>
<path fill-rule="evenodd" clip-rule="evenodd" d="M41.2219 9.99307C41.3153 9.92853 41.3932 9.8073 41.4637 9.64379C41.5342 9.48028 41.494 9.2782 41.4422 9.13473C41.3904 8.99127 41.3269 8.90643 41.3154 8.90698C41.3038 8.90755 41.3442 8.99346 41.3531 9.02108C41.3621 9.04869 41.3396 9.01799 41.3408 9.05549C41.342 9.09299 41.3668 9.19869 41.3565 9.24741C41.3462 9.29613 41.3006 9.28786 41.2824 9.32791C41.2643 9.36797 41.2735 9.45634 41.2574 9.52801C41.2412 9.59969 41.1996 9.65468 41.2036 9.67554C41.2077 9.6964 41.2573 9.68314 41.2419 9.71432C41.2265 9.7455 41.1994 9.77832 41.1749 9.81659C41.1505 9.85485 41.2061 9.87765 41.1997 9.89331C41.1934 9.90898 41.1359 9.97454 41.1131 10.0009C41.0904 10.0274 41.0184 10.0433 41.0138 10.0696C41.0195 10.0655 41.1285 10.0576 41.2219 9.99307Z" fill="#588329"/>
<path fill-rule="evenodd" clip-rule="evenodd" d="M39.4534 13.3234C39.5134 13.2299 40.7694 13.2767 41.7626 13.2459C42.7558 13.2151 43.4861 13.1066 43.9204 13.0294C44.3547 12.9521 44.4929 12.906 44.6168 12.881C44.7408 12.8559 44.8503 12.852 44.7693 13.0607C44.6883 13.2694 44.4168 13.6906 44.0205 14.1232C43.6242 14.5558 43.1032 14.9997 42.6531 15.3245C42.203 15.6492 41.8238 15.8549 41.4894 16.0113C41.155 16.1677 40.8654 16.2749 40.478 16.3372C40.0906 16.3995 39.6055 16.4169 39.4068 16.4052C39.208 16.3934 39.2956 16.3526 39.4572 16.3039C39.6189 16.2552 39.8545 16.1988 40.1966 16.0888C40.5386 15.9788 40.9871 15.8153 41.2163 15.6888C41.4456 15.5623 41.4557 15.4727 41.1543 15.4509C40.853 15.4291 40.2403 15.4751 39.8785 15.4572C39.5166 15.4393 39.4056 15.3575 39.5535 15.3093C39.7015 15.2612 40.1083 15.2466 40.5561 15.1345C41.0039 15.0225 41.4926 14.8129 41.3126 14.6633C41.1327 14.5137 40.2841 14.4241 39.6638 14.2868C39.0434 14.1496 38.6515 13.9647 38.6737 13.9124C38.6959 13.8602 39.1323 13.9406 39.6999 13.958C40.2676 13.9754 40.9666 13.9298 40.748 13.7902C40.5295 13.6505 39.3934 13.4168 39.4534 13.3234Z" fill="#578228"/>
<path fill-rule="evenodd" clip-rule="evenodd" d="M32.4992 6.15601C32.4704 6.06219 32.4125 5.87401 32.4094 5.7927C32.4063 5.71139 32.458 5.73671 32.5308 5.81538C32.6036 5.89405 32.6976 6.02605 32.7339 6.10496C32.7703 6.18387 32.7491 6.20969 32.7132 6.22442C32.6773 6.23915 32.6268 6.24277 32.5935 6.24516C32.5602 6.24754 32.5442 6.24869 32.5361 6.24926C32.5281 6.24983 32.5281 6.24983 32.4992 6.15601Z" fill="#416D19"/>
<path d="M1.07959 18.4304C1.07959 8.83191 10.2122 1.05078 21.4779 1.05078H103.689V13.4823C103.689 23.0808 94.5566 30.8619 83.2909 30.8619H1.07959V18.4304Z" stroke="black"/>
</svg>
