<?xml version="1.0" encoding="utf-8"?>
<!-- Generator: Adobe Illustrator 25.0.1, SVG Export Plug-In . SVG Version: 6.00 Build 0)  -->
<svg version="1.1" id="Layer_1" xmlns="http://www.w3.org/2000/svg" xmlns:xlink="http://www.w3.org/1999/xlink" x="0px" y="0px"
	 viewBox="0 0 368.5 368.5" style="enable-background:new 0 0 368.5 368.5;" xml:space="preserve">
<style type="text/css">
	.st0{fill-rule:evenodd;clip-rule:evenodd;}
	.st1{fill:#FFFFFF;}
</style>
<path class="st0" d="M184.25,86.08c54.21,0,98.17,43.95,98.17,98.17c0,54.21-43.96,98.17-98.17,98.17
	c-54.22,0-98.17-43.96-98.17-98.17C86.08,130.03,130.03,86.08,184.25,86.08L184.25,86.08z"/>
<g>
	<path d="M184.25,291.1c-58.91,0-106.84-47.93-106.84-106.84c0-58.91,47.93-106.84,106.84-106.84S291.1,125.34,291.1,184.25
		C291.1,243.17,243.17,291.1,184.25,291.1z M184.25,81.66c-56.57,0-102.59,46.02-102.59,102.59c0,56.57,46.02,102.59,102.59,102.59
		s102.59-46.02,102.59-102.59C286.84,127.68,240.82,81.66,184.25,81.66z"/>
</g>
<path d="M336.83,166.88c4.8,42.13-7.94,82.22-32.4,112.97c-24.47,30.75-60.67,52.17-102.8,56.97c-42.13,4.8-82.22-7.94-112.97-32.4
	c-30.75-24.47-52.17-60.67-56.97-102.8s7.94-82.22,32.4-112.97c24.47-30.75,60.67-52.17,102.8-56.97
	c42.13-4.8,82.22,7.94,112.97,32.4C310.61,88.55,332.03,124.74,336.83,166.88L336.83,166.88z M302.47,278.3
	c24.07-30.26,36.6-69.7,31.88-111.15c-4.72-41.44-25.79-77.05-56.04-101.12c-30.26-24.08-69.7-36.6-111.15-31.88
	C125.71,38.87,90.1,59.94,66.03,90.2c-24.08,30.26-36.6,69.7-31.88,111.14c4.71,41.45,25.79,77.06,56.04,101.13
	c30.26,24.07,69.7,36.6,111.14,31.88C242.79,329.62,278.4,308.56,302.47,278.3L302.47,278.3z"/>
<path class="st1" d="M146.79,213.05c-3.31,2.13-6.73,3.7-10.29,4.77c-3.54,1.05-7.22,1.58-11,1.58c-8.55,0-15.32-3.16-20.32-9.47
	c-4.98-6.31-7.49-14.86-7.49-25.66c0-10.91,2.55-19.51,7.63-25.78c5.08-6.26,12.05-9.39,20.9-9.39c3.42,0,6.69,0.42,9.81,1.27
	c3.14,0.83,6.09,2.09,8.85,3.77v14.02c-2.87-2.15-5.72-3.77-8.54-4.82c-2.83-1.07-5.68-1.6-8.52-1.6c-5.27,0-9.33,1.96-12.19,5.84
	c-2.85,3.89-4.28,9.45-4.28,16.68c0,7.18,1.37,12.73,4.13,16.63c2.75,3.9,6.67,5.86,11.74,5.86c1.37,0,2.66-0.11,3.85-0.35
	c1.17-0.23,2.23-0.59,3.18-1.07v-13.19h-8.1v-11.71h20.64V213.05z M158.46,150.31h16.83l11.69,36.28l11.76-36.28h16.83v67.79h-12.53
	v-49.58l-11.84,36.56h-8.38L171,168.52v49.58h-12.53V150.31z M228.56,150.31h21.96c6.54,0,11.55,1.92,15.05,5.75
	c3.49,3.83,5.25,9.28,5.25,16.35c0,7.11-1.75,12.58-5.25,16.41c-3.5,3.83-8.52,5.75-15.05,5.75h-8.72v23.53h-13.24V150.31z
	 M241.8,162.96v18.97h7.31c2.57,0,4.55-0.82,5.95-2.48c1.39-1.66,2.09-4,2.09-7.03c0-3.03-0.7-5.36-2.09-7.01
	c-1.4-1.63-3.38-2.45-5.95-2.45H241.8z"/>
<path d="M290.17,256.46c0.64,0.46,1.16,1.02,1.55,1.66c0.4,0.63,0.64,1.32,0.75,2.08c0.1,0.78,0.06,1.53-0.13,2.24
	c-0.19,0.73-0.51,1.41-0.97,2.03c-0.46,0.62-1.02,1.14-1.67,1.53c-0.65,0.39-1.35,0.64-2.1,0.75c-0.78,0.12-1.53,0.09-2.26-0.09
	c-0.73-0.18-1.4-0.5-2.03-0.96c-0.64-0.46-1.16-1.02-1.54-1.67c-0.4-0.64-0.65-1.35-0.77-2.11c-0.12-0.76-0.08-1.5,0.1-2.23
	c0.19-0.73,0.51-1.42,0.98-2.05c0.46-0.62,1.02-1.14,1.67-1.52c0.65-0.39,1.35-0.64,2.12-0.75c0.76-0.11,1.5-0.07,2.24,0.11
	C288.84,255.67,289.53,255.99,290.17,256.46L290.17,256.46z M290.66,234.81c-0.16-1.69-0.11-3.38,0.13-5.06
	c0.24-1.67,0.68-3.34,1.31-4.98c1.43-3.71,3.6-6.26,6.52-7.64c2.92-1.37,6.16-1.39,9.75-0.03c3.61,1.37,6.03,3.54,7.26,6.54
	c1.23,2.99,1.1,6.41-0.37,10.25c-0.56,1.48-1.25,2.86-2.05,4.11c-0.8,1.26-1.7,2.38-2.72,3.37l-4.64-1.75
	c1.19-0.98,2.19-2.02,3.01-3.11c0.83-1.1,1.48-2.26,1.95-3.49c0.88-2.29,0.91-4.3,0.09-6.03c-0.81-1.72-2.41-3.04-4.81-3.95
	c-2.38-0.89-4.44-1-6.2-0.29c-1.75,0.7-3.04,2.16-3.89,4.36c-0.23,0.6-0.4,1.17-0.53,1.71c-0.12,0.54-0.18,1.05-0.17,1.52l4.36,1.65
	l1.35-3.52l3.88,1.47l-3.43,8.96L290.66,234.81z M324.53,189.66l-0.77,6.83l-17.35,6.8l16.38,1.82l-0.66,5.79l-23.86-2.66l0.77-6.82
	l17.35-6.81l-16.38-1.82l0.66-5.79L324.53,189.66z M324.12,173.86l0.24,6.15l-24,0.94l-0.24-6.15L324.12,173.86z M306.17,154.27
	l-8.93,1.71l-1.17-6.04l23.59-4.53l1.79,9.22c0.6,3.09,0.51,5.45-0.24,7.08c-0.76,1.64-2.27,2.68-4.52,3.11
	c-1.56,0.3-2.91,0.17-4.06-0.39c-1.14-0.56-2.1-1.54-2.87-2.96c-0.03,0.86-0.31,1.69-0.86,2.47c-0.54,0.78-1.43,1.64-2.65,2.56
	l-6.06,4.58l-1.26-6.44l5.3-3.98c1.07-0.8,1.77-1.53,2.08-2.21c0.32-0.67,0.38-1.49,0.19-2.48L306.17,154.27z M310.87,155.99
	c0.24,1.26,0.66,2.13,1.24,2.59c0.58,0.46,1.42,0.58,2.5,0.37c1.08-0.21,1.79-0.62,2.15-1.26c0.35-0.64,0.41-1.59,0.17-2.85
	l-0.5-2.54l-6.05,1.16L310.87,155.99z M306.49,115.01l2.77,5.5l-12.88,6.4c-1.77,0.89-2.9,1.8-3.37,2.76
	c-0.46,0.95-0.38,2.08,0.28,3.39c0.67,1.31,1.52,2.06,2.57,2.26c1.05,0.19,2.47-0.15,4.24-1.03l12.87-6.41l2.77,5.51l-12.87,6.4
	c-3.04,1.51-5.68,1.88-7.94,1.1c-2.25-0.78-4.15-2.72-5.72-5.81c-1.56-3.1-1.98-5.77-1.26-8.02c0.73-2.26,2.61-4.14,5.64-5.65
	L306.49,115.01z M289.93,91.07l12.99,17.8l-3.79,2.73l-4.68-6.42l-15.66,11.27l-3.63-4.98l15.66-11.27l-4.68-6.41L289.93,91.07z
	 M269.68,102.35c-1.25-0.27-2.45-0.69-3.58-1.26c-1.14-0.56-2.22-1.26-3.25-2.13c-3.06-2.56-4.76-5.43-5.11-8.62
	c-0.35-3.2,0.7-6.25,3.16-9.16c2.47-2.92,5.32-4.48,8.54-4.68c3.23-0.21,6.38,0.97,9.44,3.52c1.03,0.85,1.91,1.79,2.66,2.81
	c0.75,1.01,1.37,2.11,1.86,3.29l-3.2,3.78c-0.38-1.33-0.87-2.5-1.49-3.48c-0.62-1-1.4-1.88-2.34-2.67
	c-1.69-1.41-3.48-1.98-5.36-1.71c-1.88,0.26-3.62,1.34-5.22,3.23c-1.59,1.89-2.36,3.77-2.3,5.66c0.05,1.88,0.93,3.53,2.62,4.95
	c0.94,0.78,1.96,1.4,3.05,1.84c1.09,0.43,2.33,0.72,3.71,0.85L269.68,102.35z M242.3,73.52l5.78,3.14l1.71-9.88L242.3,73.52z
	 M247.3,81.28l-8.48-4.62l-3.45,3.09l-5.46-2.97l19.33-16.69l6.48,3.52l-3.73,25.16l-5.46-2.97L247.3,81.28z M222.45,49.15
	l15.84,5.26l-1.48,4.41l-9.97-3.31l-1.42,4.22l9.38,3.11l-1.48,4.4l-9.38-3.11l-3.23,9.6l-5.87-1.96L222.45,49.15z M191.68,43.94
	l6.13,0.84l-1.96,14.17c-0.27,1.95-0.13,3.39,0.39,4.32c0.52,0.92,1.51,1.48,2.97,1.69c1.47,0.19,2.57-0.08,3.33-0.83
	c0.76-0.74,1.27-2.1,1.54-4.06l1.96-14.17l6.13,0.83l-1.96,14.17c-0.46,3.35-1.64,5.73-3.56,7.13c-1.91,1.41-4.6,1.87-8.06,1.4
	c-3.46-0.46-5.91-1.64-7.37-3.5c-1.47-1.86-1.96-4.47-1.5-7.81L191.68,43.94z M158.33,46.2l6.87-0.73l10.44,15.35l-1.75-16.28
	l5.84-0.62l2.56,23.72l-6.87,0.73l-10.44-15.35l1.75,16.28l-5.83,0.62L158.33,46.2z M139.76,67.38l6.22-2.13l-6.22-7.9V67.38z
	 M148.91,68.92l-9.15,3.15l-0.01,4.61l-5.89,2.02l0.56-25.43l6.97-2.39l16.26,19.66l-5.89,2.02L148.91,68.92z M95.62,74.71
	l6.63-4.22l11.54,7.83l-2.3-13.7l6.63-4.22l12.95,20.09l-4.93,3.15l-9.48-14.7l2.33,13.8l-3.3,2.1l-11.65-7.87l9.48,14.69
	l-4.94,3.14L95.62,74.71z M83.65,265.64c-0.68,0.4-1.4,0.67-2.14,0.78c-0.74,0.12-1.48,0.08-2.23-0.11
	c-0.76-0.2-1.44-0.53-2.04-0.98c-0.61-0.45-1.11-1-1.52-1.67c-0.4-0.66-0.67-1.37-0.78-2.11c-0.12-0.75-0.08-1.49,0.1-2.22
	c0.19-0.76,0.51-1.44,0.95-2.03c0.45-0.6,1-1.1,1.67-1.5c0.68-0.4,1.39-0.67,2.14-0.78c0.76-0.11,1.51-0.08,2.25,0.11
	c0.75,0.19,1.43,0.5,2.05,0.94c0.61,0.45,1.12,1.01,1.53,1.69c0.4,0.67,0.67,1.37,0.78,2.11c0.12,0.74,0.08,1.48-0.11,2.23
	c-0.19,0.73-0.51,1.41-0.96,2.02C84.89,264.73,84.32,265.23,83.65,265.64L83.65,265.64z M78.77,111.12
	c-0.64-0.46-1.16-1.02-1.55-1.66c-0.4-0.63-0.64-1.33-0.75-2.08c-0.1-0.78-0.07-1.53,0.13-2.25c0.19-0.73,0.51-1.4,0.97-2.02
	c0.46-0.62,1.02-1.14,1.67-1.53c0.65-0.39,1.35-0.64,2.1-0.75c0.78-0.13,1.53-0.09,2.26,0.09c0.73,0.18,1.4,0.5,2.03,0.96
	c0.64,0.46,1.16,1.02,1.54,1.66c0.4,0.65,0.66,1.35,0.77,2.12c0.12,0.75,0.08,1.5-0.1,2.23s-0.51,1.42-0.98,2.05
	c-0.46,0.62-1.02,1.13-1.67,1.52c-0.65,0.39-1.35,0.64-2.12,0.75c-0.76,0.11-1.5,0.07-2.24-0.11
	C80.09,111.92,79.4,111.6,78.77,111.12L78.77,111.12z M48.81,145.49l2.47-6.01c1.38-3.35,2.65-5.75,3.8-7.19
	c1.16-1.44,2.55-2.52,4.18-3.23c1.43-0.63,2.91-0.93,4.43-0.9c1.51,0.03,3.09,0.38,4.76,1.05c1.68,0.68,3.07,1.54,4.18,2.58
	c1.1,1.04,1.95,2.28,2.53,3.71c0.67,1.66,0.89,3.41,0.69,5.26c-0.19,1.85-0.98,4.43-2.34,7.74l-2.47,6.01L48.81,145.49z
	 M55.48,141.55l13.58,5.51l0.83-2.04c0.96-2.33,1.11-4.34,0.45-6.04c-0.65-1.69-2.09-2.99-4.3-3.9c-2.21-0.89-4.14-0.96-5.79-0.21
	c-1.65,0.75-2.96,2.3-3.92,4.64L55.48,141.55z M44.83,168.81c0.43-3.81,1.86-6.68,4.3-8.59c2.44-1.91,5.59-2.66,9.45-2.23
	c3.86,0.43,6.77,1.85,8.72,4.25s2.71,5.52,2.28,9.33c-0.43,3.79-1.86,6.65-4.3,8.58c-2.44,1.92-5.58,2.66-9.44,2.23
	c-3.86-0.43-6.77-1.85-8.73-4.26C45.16,175.71,44.4,172.61,44.83,168.81L44.83,168.81z M49.29,169.31
	c-0.21,1.86,0.32,3.39,1.59,4.57c1.27,1.18,3.16,1.91,5.68,2.19s4.51-0.02,6.02-0.89c1.5-0.88,2.35-2.25,2.56-4.12
	c0.21-1.86-0.32-3.4-1.59-4.58c-1.27-1.18-3.15-1.91-5.67-2.19c-2.51-0.28-4.52,0.02-6.02,0.89
	C50.36,166.06,49.5,167.44,49.29,169.31L49.29,169.31z M45.41,202.16c-0.46-3.81,0.27-6.92,2.2-9.34c1.93-2.42,4.83-3.86,8.69-4.32
	c3.85-0.46,7.01,0.25,9.46,2.15c2.45,1.9,3.9,4.75,4.37,8.55c0.46,3.79-0.28,6.91-2.2,9.34c-1.93,2.42-4.82,3.87-8.68,4.33
	c-3.86,0.46-7.02-0.25-9.48-2.16C47.32,208.81,45.86,205.96,45.41,202.16L45.41,202.16z M49.85,201.63c0.23,1.86,1.1,3.23,2.61,4.09
	c1.51,0.86,3.52,1.14,6.03,0.84c2.5-0.3,4.39-1.05,5.65-2.23c1.26-1.2,1.77-2.72,1.55-4.59c-0.23-1.86-1.1-3.24-2.61-4.1
	c-1.51-0.86-3.52-1.14-6.02-0.84c-2.51,0.3-4.39,1.05-5.66,2.23C50.15,198.23,49.62,199.77,49.85,201.63L49.85,201.63z
	 M70.76,216.11c1.27,1.13,2.4,2.39,3.38,3.79c0.97,1.38,1.8,2.89,2.46,4.52c1.52,3.68,1.68,7.01,0.49,10
	c-1.18,2.99-3.55,5.19-7.09,6.64c-3.58,1.45-6.85,1.5-9.8,0.14c-2.95-1.35-5.21-3.93-6.78-7.73c-0.61-1.47-1.05-2.93-1.32-4.39
	c-0.29-1.46-0.4-2.89-0.34-4.3l4.6-1.87c-0.2,1.52-0.23,2.96-0.07,4.32c0.14,1.36,0.48,2.65,0.98,3.87
	c0.94,2.27,2.29,3.76,4.07,4.47c1.78,0.71,3.86,0.58,6.23-0.38c2.35-0.95,3.93-2.29,4.72-3.99c0.79-1.7,0.74-3.65-0.16-5.84
	c-0.24-0.59-0.51-1.12-0.79-1.6c-0.28-0.47-0.59-0.89-0.91-1.22l-4.33,1.75l1.43,3.48l-3.85,1.56l-3.65-8.88L70.76,216.11z"/>
<path d="M103.47,270.27l7.89,6.47c2.34,1.92,3.72,3.92,4.12,6c0.4,2.07-0.19,4.07-1.76,6c-1.59,1.94-3.43,2.91-5.54,2.93
	c-2.12,0.01-4.34-0.94-6.7-2.87l-3.13-2.57l-5.25,6.41l-4.76-3.9L103.47,270.27z M105.41,277.61l-4.23,5.16l2.63,2.15
	c0.92,0.76,1.82,1.12,2.69,1.08s1.64-0.47,2.32-1.3c0.67-0.83,0.94-1.66,0.81-2.52c-0.13-0.86-0.67-1.66-1.59-2.42L105.41,277.61z
	 M125.79,298.78c1.13,0.61,2.06,0.83,2.78,0.67c0.72-0.16,1.33-0.73,1.85-1.69c0.52-0.96,0.64-1.78,0.37-2.45
	c-0.27-0.67-0.97-1.32-2.11-1.93l-2.27-1.21l-2.9,5.39L125.79,298.78z M121.5,301.31l-4.28,7.95l-5.41-2.91l11.27-21.01l8.27,4.44
	c2.77,1.48,4.55,3.04,5.34,4.66c0.79,1.62,0.65,3.43-0.43,5.44c-0.74,1.39-1.69,2.35-2.84,2.88c-1.15,0.52-2.51,0.64-4.09,0.34
	c0.65,0.57,1.11,1.31,1.37,2.22c0.27,0.91,0.37,2.13,0.33,3.67l-0.26,7.56l-5.78-3.1l0.24-6.6c0.05-1.32-0.08-2.33-0.41-2.99
	c-0.32-0.67-0.92-1.24-1.8-1.71L121.5,301.31z M154.54,318.71l-9.34-2.3l-2.51,3.86l-6-1.48l14.29-21.05l7.12,1.75l2.87,25.27
	l-6-1.48L154.54,318.71z M147.76,312.49l6.34,1.57l-0.89-9.99L147.76,312.49z M188.47,325.1c-1.16,0.55-2.34,0.95-3.58,1.21
	c-1.24,0.25-2.52,0.35-3.85,0.31c-3.98-0.14-7.08-1.37-9.32-3.67c-2.25-2.29-3.31-5.35-3.17-9.14c0.13-3.81,1.4-6.78,3.8-8.92
	c2.39-2.13,5.57-3.14,9.55-2.99c1.33,0.04,2.61,0.24,3.82,0.58c1.21,0.34,2.37,0.82,3.48,1.44l-0.18,4.93
	c-1.11-0.82-2.21-1.43-3.31-1.83c-1.1-0.4-2.26-0.62-3.48-0.67c-2.19-0.08-3.95,0.57-5.25,1.93c-1.31,1.36-2,3.27-2.09,5.74
	c-0.08,2.46,0.48,4.42,1.69,5.87c1.21,1.44,2.91,2.21,5.1,2.29c1.22,0.04,2.39-0.09,3.52-0.42c1.12-0.32,2.27-0.85,3.43-1.59
	L188.47,325.1z M192.36,302.39l21.72-3.43l0.73,4.59l-7.83,1.24l3,18.97l-6.08,0.96l-3-18.97l-7.82,1.23L192.36,302.39z
	 M218.6,296.92l5.86-1.89l7.32,22.71l-5.86,1.89L218.6,296.92z M258.3,303.2c-0.7,1.06-1.52,2.02-2.45,2.87
	c-0.93,0.85-1.97,1.6-3.14,2.24c-3.48,1.93-6.77,2.48-9.87,1.65c-3.1-0.82-5.58-2.88-7.42-6.21c-1.84-3.33-2.29-6.53-1.32-9.6
	c0.95-3.07,3.16-5.57,6.65-7.49c1.16-0.64,2.35-1.13,3.58-1.46c1.21-0.34,2.45-0.52,3.73-0.55l2.39,4.32
	c-1.37-0.13-2.63-0.09-3.78,0.13c-1.15,0.22-2.26,0.63-3.33,1.22c-1.92,1.06-3.09,2.51-3.51,4.35c-0.42,1.85-0.03,3.85,1.16,6
	c1.19,2.16,2.67,3.54,4.46,4.17c1.78,0.62,3.63,0.4,5.56-0.67c1.06-0.59,2-1.31,2.8-2.17c0.79-0.85,1.49-1.9,2.12-3.13L258.3,303.2z
	 M252.08,280.05l12.66-10.73l3,3.55l-7.97,6.75l2.88,3.39l7.49-6.34l3,3.54l-7.49,6.35l3.53,4.17l8.24-6.98l3,3.55l-12.94,10.95
	L252.08,280.05z"/>
</svg>
