<svg width="162" height="46" viewBox="0 0 162 46" fill="none" xmlns="http://www.w3.org/2000/svg">
<g clip-path="url(#clip0_413_74)">
<path d="M12.3633 22.9844C12.2852 23.0332 12.1582 23.1113 11.9824 23.2188C11.8262 23.3262 11.6064 23.4727 11.3232 23.6582C11.04 23.8438 10.6641 24.1025 10.1953 24.4346C10.2734 24.2881 10.2686 24.1758 10.1807 24.0977C10.1025 24.0195 9.99512 23.9658 9.8584 23.9365C9.69238 23.8975 9.49707 23.8828 9.27246 23.8926C8.93066 23.9219 8.47656 23.9561 7.91016 23.9951C7.34375 24.0342 6.70898 24.0684 6.00586 24.0977C5.99609 25.543 5.98145 26.7246 5.96191 27.6426C5.95215 28.5508 5.94238 29.2637 5.93262 29.7812C5.91309 30.3867 5.89355 30.8408 5.87402 31.1436C5.85449 31.3389 5.7959 31.5293 5.69824 31.7148C5.62012 31.8809 5.49316 32.0566 5.31738 32.2422C5.15137 32.4277 4.91699 32.5938 4.61426 32.7402C5.20996 32.7402 5.80078 32.7207 6.38672 32.6816C6.88477 32.6523 7.41211 32.6035 7.96875 32.5352C8.53516 32.4668 9.04785 32.3643 9.50684 32.2275C9.04785 32.6377 8.5791 32.9648 8.10059 33.209C7.63184 33.4531 7.1582 33.6436 6.67969 33.7803C6.21094 33.917 5.74707 34.0146 5.28809 34.0732C4.83887 34.1318 4.41406 34.1709 4.01367 34.1904C3.62305 34.21 3.25684 34.2295 2.91504 34.249C2.58301 34.2686 2.2998 34.3076 2.06543 34.3662C2.36816 34.0635 2.60254 33.7656 2.76855 33.4727C2.94434 33.1797 3.07617 32.8525 3.16406 32.4912C3.25195 32.1299 3.30566 31.7246 3.3252 31.2754C3.35449 30.8164 3.36426 30.2744 3.35449 29.6494V24.127C3.09082 24.127 2.82227 24.1221 2.54883 24.1123C2.28516 24.1025 2.0166 24.0879 1.74316 24.0684L3.35449 23.2334C3.35449 22.6963 3.34961 22.125 3.33984 21.5195C3.33984 20.9043 3.33984 20.2451 3.33984 19.542C3.33984 18.8291 3.33496 18.0625 3.3252 17.2422C3.3252 16.4219 3.3252 15.5283 3.3252 14.5615C2.88574 14.5615 2.4707 14.5566 2.08008 14.5469C1.68945 14.5371 1.32812 14.5225 0.996094 14.5029L3.7207 13.0527C5.57617 13.0527 7.1582 13.043 8.4668 13.0234C9.78516 12.9941 10.874 12.9648 11.7334 12.9355C12.7295 12.8965 13.5596 12.8574 14.2236 12.8184C14.5557 12.8184 14.7754 12.8477 14.8828 12.9062C14.9902 12.9551 15.0342 13.0137 15.0146 13.082C14.9951 13.1406 14.9365 13.2041 14.8389 13.2725C14.7412 13.3408 14.6533 13.3896 14.5752 13.4189C14.4971 13.458 14.3506 13.541 14.1357 13.668C13.9502 13.7754 13.6865 13.9463 13.3447 14.1807C13.0127 14.4053 12.5537 14.7129 11.9678 15.1035C12.1631 14.8887 12.2461 14.7324 12.2168 14.6348C12.1875 14.5273 12.1191 14.4492 12.0117 14.4004C11.8848 14.3516 11.709 14.3271 11.4844 14.3271C11.2988 14.3467 11.0205 14.3662 10.6494 14.3857C10.2783 14.3955 9.84375 14.4102 9.3457 14.4297C8.85742 14.4492 8.3252 14.4688 7.74902 14.4883C7.17285 14.5078 6.58203 14.5225 5.97656 14.5322C5.99609 16.2217 6.00586 17.7256 6.00586 19.0439C6.00586 20.3623 6.00586 21.5684 6.00586 22.6621C6.89453 22.6523 7.70508 22.6377 8.4375 22.6182C9.16992 22.5889 9.7998 22.5596 10.3271 22.5303C10.9424 22.4912 11.499 22.4521 11.9971 22.4131C12.3291 22.4033 12.5488 22.4229 12.6562 22.4717C12.7637 22.5107 12.8076 22.5645 12.7881 22.6328C12.7686 22.7012 12.71 22.7695 12.6123 22.8379C12.5146 22.9062 12.4316 22.9551 12.3633 22.9844Z" fill="#1A4017"/>
<path d="M23.6133 30.1621C23.418 30.416 23.1982 30.6992 22.9541 31.0117C22.7197 31.3145 22.4658 31.627 22.1924 31.9492C21.9189 32.2715 21.6309 32.584 21.3281 32.8867C21.0254 33.1797 20.708 33.4434 20.376 33.6777C20.0537 33.9023 19.7217 34.0781 19.3799 34.2051C19.0381 34.332 18.6963 34.3857 18.3545 34.3662C18.0615 34.3369 17.8223 34.2051 17.6367 33.9707C17.4512 33.7266 17.3047 33.4189 17.1973 33.0479C17.0898 32.667 17.0215 32.2324 16.9922 31.7441C16.9629 31.2559 16.958 30.748 16.9775 30.2207C16.9873 29.957 17.0117 29.4932 17.0508 28.8291C17.0898 28.1553 17.1338 27.3594 17.1826 26.4414C17.2412 25.5234 17.2998 24.5176 17.3584 23.4238C17.4268 22.3301 17.4902 21.2217 17.5488 20.0986C17.6074 18.9756 17.666 17.877 17.7246 16.8027C17.7832 15.7188 17.832 14.7373 17.8711 13.8584C17.9199 12.9795 17.959 12.2373 17.9883 11.6318C18.0176 11.0166 18.0322 10.6113 18.0322 10.416C18.0322 9.88867 17.9883 9.47852 17.9004 9.18555C17.8223 8.89258 17.6172 8.74609 17.2852 8.74609C16.9629 8.74609 16.4893 8.89258 15.8643 9.18555C16.2939 8.81445 16.665 8.49707 16.9775 8.2334C17.29 7.96973 17.5488 7.75488 17.7539 7.58887C17.998 7.40332 18.1982 7.24707 18.3545 7.12012C18.6475 6.87598 18.9697 6.75391 19.3213 6.75391C19.624 6.75391 19.8828 6.86621 20.0977 7.09082C20.3223 7.31543 20.415 7.66699 20.376 8.14551C20.3662 8.33105 20.3418 8.73145 20.3027 9.34668C20.2734 9.95215 20.2393 10.7041 20.2002 11.6025C20.1611 12.4912 20.1123 13.4873 20.0537 14.5908C20.0049 15.6846 19.9561 16.8174 19.9072 17.9893C19.8584 19.1514 19.8047 20.3135 19.7461 21.4756C19.6973 22.6279 19.6533 23.7021 19.6143 24.6982C19.5752 25.6943 19.541 26.5781 19.5117 27.3496C19.4922 28.1211 19.4775 28.707 19.4678 29.1074C19.458 29.6543 19.4873 30.123 19.5557 30.5137C19.624 30.9043 19.7168 31.2217 19.834 31.4658C19.9512 31.71 20.0928 31.8906 20.2588 32.0078C20.4248 32.1152 20.6006 32.1689 20.7861 32.1689C21.0107 32.1689 21.2354 32.1006 21.46 31.9639C21.6846 31.8271 21.8994 31.6514 22.1045 31.4365C22.3096 31.2217 22.5049 30.9775 22.6904 30.7041C22.876 30.4307 23.0469 30.1572 23.2031 29.8838C23.3594 29.6104 23.4912 29.3516 23.5986 29.1074C23.7158 28.8633 23.8086 28.6631 23.877 28.5068L23.6133 30.1621Z" fill="#1A4017"/>
<path d="M35.3379 22.7207C35.3672 23.4824 35.3428 24.2295 35.2646 24.9619C35.1865 25.6943 35.0693 26.3828 34.9131 27.0273C34.7666 27.6621 34.5811 28.2432 34.3564 28.7705C34.1416 29.2881 33.9072 29.7129 33.6533 30.0449C33.4873 30.2695 33.2529 30.5332 32.9502 30.8359C32.6572 31.1289 32.3252 31.4365 31.9541 31.7588C31.583 32.0713 31.1875 32.3838 30.7676 32.6963C30.3477 33.0088 29.9326 33.2871 29.5225 33.5312C29.1123 33.7656 28.7168 33.9561 28.3359 34.1025C27.9648 34.2588 27.6377 34.3369 27.3545 34.3369C27.0225 34.3369 26.7344 34.249 26.4902 34.0732C26.2461 33.9072 26.0361 33.6875 25.8604 33.4141C25.6846 33.1309 25.5381 32.8184 25.4209 32.4766C25.3037 32.125 25.2109 31.7783 25.1426 31.4365C25.0742 31.085 25.0254 30.7529 24.9961 30.4404C24.9766 30.1182 24.9668 29.8447 24.9668 29.6201C24.9668 28.7607 25.0449 27.9111 25.2012 27.0713C25.3574 26.2217 25.5967 25.416 25.9189 24.6543C26.251 23.8926 26.666 23.1895 27.1641 22.5449C27.6621 21.8906 28.2578 21.3291 28.9512 20.8604C29.4004 20.5576 29.8057 20.2842 30.167 20.04C30.5283 19.7861 30.8604 19.5762 31.1631 19.4102C31.4658 19.2441 31.7393 19.1172 31.9834 19.0293C32.2373 18.9316 32.4766 18.8828 32.7012 18.8828C32.916 18.8828 33.165 18.9414 33.4482 19.0586C33.7412 19.1758 34.0195 19.3809 34.2832 19.6738C34.5566 19.957 34.791 20.3477 34.9863 20.8457C35.1816 21.334 35.2988 21.959 35.3379 22.7207ZM33.0234 25.1523C33.0234 24.7422 32.9941 24.2734 32.9355 23.7461C32.877 23.2188 32.7598 22.7256 32.584 22.2666C32.4082 21.8076 32.1592 21.4219 31.8369 21.1094C31.5244 20.7871 31.1045 20.626 30.5771 20.626C30.3623 20.626 30.1377 20.6748 29.9033 20.7725C29.6787 20.8604 29.4688 21.002 29.2734 21.1973C28.8828 21.5879 28.5654 22.0371 28.3213 22.5449C28.0869 23.043 27.9014 23.5703 27.7646 24.127C27.6279 24.6836 27.5352 25.2451 27.4863 25.8115C27.4375 26.3779 27.4131 26.915 27.4131 27.4229C27.4131 27.6865 27.418 27.9941 27.4277 28.3457C27.4375 28.6875 27.4668 29.0439 27.5156 29.415C27.5645 29.7764 27.6328 30.1377 27.7207 30.499C27.8184 30.8604 27.9453 31.1826 28.1016 31.4658C28.2676 31.7393 28.4727 31.9639 28.7168 32.1396C28.9609 32.3154 29.2588 32.4033 29.6104 32.4033C30.0791 32.4033 30.4893 32.2715 30.8408 32.0078C31.1924 31.7344 31.4951 31.3828 31.749 30.9531C32.0029 30.5234 32.208 30.04 32.3643 29.5029C32.5303 28.9658 32.6621 28.4287 32.7598 27.8916C32.8574 27.3545 32.9258 26.8467 32.9648 26.3682C33.0039 25.8799 33.0234 25.4746 33.0234 25.1523Z" fill="#1A4017"/>
<path d="M42.4053 25.8701C42.3564 26.4268 42.3125 27.0518 42.2734 27.7451C42.2344 28.3408 42.1904 29.0488 42.1416 29.8691C42.0928 30.6797 42.0391 31.5781 41.9805 32.5645L39.5195 34.6592C39.7344 32.667 39.9199 30.7676 40.0762 28.9609C40.2422 27.1543 40.3252 25.3721 40.3252 23.6143C40.3252 22.7256 40.2031 22.0713 39.959 21.6514C39.7148 21.2217 39.3877 21.0068 38.9775 21.0068C38.5479 21.0068 38.0498 21.2266 37.4834 21.666C37.6104 21.5488 37.7617 21.4023 37.9375 21.2266C38.123 21.041 38.3184 20.8457 38.5234 20.6406C38.7383 20.4355 38.958 20.2305 39.1826 20.0254C39.417 19.8203 39.6416 19.6348 39.8564 19.4688C40.0811 19.3027 40.2959 19.1709 40.501 19.0732C40.7061 18.9658 40.8867 18.9121 41.043 18.9121C41.4238 18.9121 41.7168 19.0195 41.9219 19.2344C42.127 19.4492 42.2783 19.7129 42.376 20.0254C42.4736 20.3379 42.5322 20.665 42.5518 21.0068C42.5713 21.3486 42.5811 21.6416 42.5811 21.8857V22.5742C43.0986 21.7148 43.709 20.958 44.4121 20.3037C45.125 19.6494 45.9551 19.1855 46.9023 18.9121C47.1074 18.8535 47.3076 18.8389 47.5029 18.8682C47.6982 18.8877 47.8936 18.9268 48.0889 18.9854C48.2842 19.0342 48.4893 19.0879 48.7041 19.1465C48.9287 19.2051 49.168 19.2344 49.4219 19.2344C49.6172 19.2344 49.8223 19.21 50.0371 19.1611C50.252 19.1123 50.4961 19.0293 50.7695 18.9121C50.4863 19.1953 50.208 19.4736 49.9346 19.7471C49.6611 20.0205 49.3877 20.2695 49.1143 20.4941C48.8506 20.709 48.5869 20.8945 48.3232 21.0508C48.0693 21.1973 47.8252 21.2852 47.5908 21.3145C47.3369 21.3438 47.0928 21.3291 46.8584 21.2705C46.6338 21.2021 46.3994 21.1338 46.1553 21.0654C45.9209 20.9873 45.6719 20.9336 45.4082 20.9043C45.1445 20.8652 44.8613 20.8896 44.5586 20.9775C44.3535 21.0459 44.1484 21.2363 43.9434 21.5488C43.748 21.8516 43.5527 22.2324 43.3574 22.6914C43.1719 23.1406 42.9961 23.6436 42.8301 24.2002C42.6738 24.7471 42.5322 25.2939 42.4053 25.8408V25.8701Z" fill="#1A4017"/>
<path d="M61.0879 30.1914C61 30.3281 60.8779 30.4941 60.7217 30.6895C60.5654 30.875 60.4092 31.0605 60.2529 31.2461C60.0771 31.4609 59.8867 31.6807 59.6816 31.9053C59.4277 32.2178 59.1543 32.5205 58.8613 32.8135C58.5684 33.1064 58.2754 33.3701 57.9824 33.6045C57.6992 33.8291 57.4209 34.0098 57.1475 34.1465C56.874 34.2832 56.6299 34.3467 56.415 34.3369C56.0049 34.3174 55.7217 34.0684 55.5654 33.5898C55.4092 33.1016 55.3311 32.3984 55.3311 31.4805C55.3311 30.9922 55.3457 30.4648 55.375 29.8984C55.4043 29.332 55.4482 28.6973 55.5068 27.9941C55.292 28.3359 55.0869 28.6484 54.8916 28.9316C54.6963 29.2148 54.5205 29.4639 54.3643 29.6787C54.1885 29.9326 54.0127 30.1621 53.8369 30.3672C53.3193 31.002 52.8164 31.5635 52.3281 32.0518C51.8496 32.54 51.4053 32.9502 50.9951 33.2822C50.5947 33.6143 50.2383 33.8682 49.9258 34.0439C49.623 34.2197 49.3838 34.3174 49.208 34.3369C49.0322 34.3564 48.8174 34.2979 48.5635 34.1611C48.3193 34.0244 48.085 33.7607 47.8604 33.3701C47.6357 32.9795 47.4404 32.4326 47.2744 31.7295C47.1182 31.0264 47.0449 30.1133 47.0547 28.9902C47.0645 27.8672 47.1816 26.8809 47.4062 26.0312C47.6406 25.1719 47.9385 24.4248 48.2998 23.79C48.6709 23.1455 49.0811 22.5938 49.5303 22.1348C49.9795 21.666 50.4238 21.2607 50.8633 20.9189C51.7715 20.2256 52.6406 19.6738 53.4707 19.2637C54.3105 18.8438 55.1309 18.624 55.9316 18.6045C56.1953 18.5947 56.4541 18.5996 56.708 18.6191C56.9326 18.6387 57.1719 18.6729 57.4258 18.7217C57.6895 18.7607 57.9385 18.8242 58.1729 18.9121L58.5977 18.5752C58.5391 18.8486 58.4756 19.2197 58.4072 19.6885C58.3486 20.1572 58.29 20.6846 58.2314 21.2705C58.1729 21.8564 58.1143 22.4814 58.0557 23.1455C57.9971 23.8096 57.9434 24.4785 57.8945 25.1523C57.8555 25.8164 57.8164 26.4658 57.7773 27.1006C57.7383 27.7256 57.7041 28.2969 57.6748 28.8145C57.6553 29.332 57.6406 29.7715 57.6309 30.1328C57.6309 30.4941 57.6357 30.7432 57.6455 30.8799C57.6943 31.4365 57.8213 31.8174 58.0264 32.0225C58.2412 32.2275 58.5342 32.208 58.9053 31.9639C59.0518 31.8467 59.2324 31.6611 59.4473 31.4072C59.6328 31.1924 59.8574 30.8994 60.1211 30.5283C60.3945 30.1475 60.7168 29.6543 61.0879 29.0488V30.1914ZM56.0781 20.8604C55.1504 20.7432 54.3887 20.6846 53.793 20.6846C53.1582 20.6846 52.6064 20.7871 52.1377 20.9922C51.6689 21.1973 51.2686 21.4756 50.9365 21.8271C50.6045 22.1689 50.3311 22.5693 50.1162 23.0283C49.9014 23.4775 49.7305 23.9561 49.6035 24.4639C49.4863 24.9717 49.4033 25.4893 49.3545 26.0166C49.3154 26.5439 49.2959 27.0469 49.2959 27.5254C49.2959 27.6914 49.3057 27.916 49.3252 28.1992C49.3447 28.4824 49.3789 28.7852 49.4277 29.1074C49.4863 29.4297 49.5547 29.7568 49.6328 30.0889C49.7207 30.4209 49.8281 30.7236 49.9551 30.9971C50.0918 31.2607 50.248 31.4805 50.4238 31.6562C50.5996 31.8223 50.8047 31.9053 51.0391 31.9053C51.293 31.9053 51.6006 31.7686 51.9619 31.4951C52.333 31.2119 52.7773 30.7383 53.2949 30.0742C53.5977 29.6641 53.9004 29.1709 54.2031 28.5947C54.457 28.1064 54.7256 27.5059 55.0088 26.793C55.3018 26.0801 55.5605 25.25 55.7852 24.3027L56.0781 20.8604Z" fill="#1A4017"/>
<path d="M79.876 22.5156C79.7881 22.5547 79.6562 22.6279 79.4805 22.7354C79.3242 22.833 79.0996 22.9795 78.8066 23.1748C78.5234 23.3604 78.1475 23.6191 77.6787 23.9512C77.7568 23.8047 77.752 23.6924 77.6641 23.6143C77.5859 23.5361 77.4785 23.4824 77.3418 23.4531C77.1758 23.4141 76.9805 23.3994 76.7559 23.4092C76.4043 23.4385 75.8965 23.4727 75.2324 23.5117C74.5781 23.5508 73.8359 23.585 73.0059 23.6143C73.0059 25.1768 72.9961 26.4512 72.9766 27.4375C72.957 28.4141 72.9424 29.1758 72.9326 29.7227C72.9131 30.3672 72.8936 30.8408 72.874 31.1436C72.8545 31.3389 72.7959 31.5293 72.6982 31.7148C72.6201 31.8809 72.4932 32.0566 72.3174 32.2422C72.1514 32.4277 71.917 32.5938 71.6143 32.7402H78.25C78.5625 32.7402 78.8799 32.7207 79.2021 32.6816C79.4756 32.6523 79.7686 32.6035 80.0811 32.5352C80.3936 32.4668 80.6914 32.3643 80.9746 32.2275C80.4863 32.6865 80.0029 33.0381 79.5244 33.2822C79.0459 33.5264 78.6064 33.7021 78.2061 33.8096C77.7373 33.9365 77.293 34.0098 76.873 34.0293C75.916 34.0293 75.0127 34.0342 74.1631 34.0439C73.3135 34.0537 72.5469 34.0732 71.8633 34.1025C71.1797 34.1318 70.5938 34.166 70.1055 34.2051C69.627 34.2539 69.2803 34.3076 69.0654 34.3662C69.3682 34.0635 69.6025 33.7656 69.7686 33.4727C69.9443 33.1797 70.0762 32.8525 70.1641 32.4912C70.252 32.1299 70.3057 31.7246 70.3252 31.2754C70.3545 30.8164 70.3643 30.2744 70.3545 29.6494V23.6436C70.0713 23.6436 69.793 23.6387 69.5195 23.6289C69.2559 23.6191 68.9971 23.6045 68.7432 23.585L70.3545 22.75C70.3545 22.2227 70.3496 21.6709 70.3398 21.0947C70.3398 20.5088 70.3398 19.8838 70.3398 19.2197C70.3398 18.5557 70.335 17.8428 70.3252 17.0811C70.3252 16.3096 70.3252 15.4697 70.3252 14.5615C69.8857 14.5615 69.4707 14.5566 69.0801 14.5469C68.6895 14.5371 68.3281 14.5225 67.9961 14.5029L70.7207 13.0527C72.5762 13.0527 74.1582 13.043 75.4668 13.0234C76.7852 12.9941 77.874 12.9648 78.7334 12.9355C79.7295 12.8965 80.5596 12.8574 81.2236 12.8184C81.5557 12.8184 81.7754 12.8477 81.8828 12.9062C81.9902 12.9551 82.0342 13.0137 82.0146 13.082C81.9951 13.1406 81.9365 13.2041 81.8389 13.2725C81.7412 13.3408 81.6533 13.3896 81.5752 13.4189C81.4971 13.458 81.3506 13.541 81.1357 13.668C80.9502 13.7754 80.6865 13.9463 80.3447 14.1807C80.0127 14.4053 79.5537 14.7129 78.9678 15.1035C79.1631 14.8887 79.2461 14.7324 79.2168 14.6348C79.1875 14.5273 79.1191 14.4492 79.0117 14.4004C78.8848 14.3516 78.709 14.3271 78.4844 14.3271C78.2988 14.3467 78.0205 14.3662 77.6494 14.3857C77.2783 14.3955 76.8438 14.4102 76.3457 14.4297C75.8574 14.4492 75.3252 14.4688 74.749 14.4883C74.1729 14.5078 73.582 14.5225 72.9766 14.5322C72.9863 16.0947 72.9912 17.4961 72.9912 18.7363C73.001 19.9766 73.0059 21.1143 73.0059 22.1494C74.002 22.1396 74.8955 22.125 75.6865 22.1055C76.4873 22.0762 77.1709 22.0469 77.7373 22.0176C78.4014 21.9785 78.9922 21.9443 79.5098 21.915C79.832 21.9053 80.0469 21.9248 80.1543 21.9736C80.2617 22.0225 80.3057 22.0811 80.2861 22.1494C80.2666 22.2178 80.208 22.291 80.1104 22.3691C80.0225 22.4375 79.9443 22.4863 79.876 22.5156Z" fill="#1A4017"/>
<path d="M97.3369 19C97.4053 19.0195 97.4248 19.0928 97.3955 19.2197C97.376 19.3369 97.3174 19.4883 97.2197 19.6738C97.1318 19.8496 97.0098 20.0449 96.8535 20.2598C96.6973 20.4648 96.5166 20.6699 96.3115 20.875C96.1162 21.0703 95.9014 21.251 95.667 21.417C95.4424 21.5732 95.208 21.6855 94.9639 21.7539C95.0713 21.5391 95.1152 21.3633 95.0957 21.2266C95.0762 21.0801 95.0322 20.9678 94.9639 20.8896C94.8857 20.792 94.7832 20.7236 94.6562 20.6846C94.2852 20.5771 93.9043 20.5723 93.5137 20.6699C93.1328 20.7578 92.8057 21.0117 92.5322 21.4316L90.2471 25.2402C90.5107 26.0801 90.8037 26.915 91.126 27.7451C91.4482 28.5752 91.7998 29.3223 92.1807 29.9863C92.5615 30.6504 92.9766 31.1924 93.4258 31.6123C93.8848 32.0225 94.3779 32.2275 94.9053 32.2275C95.1006 32.2275 95.3105 32.1836 95.5352 32.0957C95.7695 31.998 96.0088 31.8418 96.2529 31.627C95.7061 32.2031 95.2031 32.6621 94.7441 33.0039C94.2852 33.3359 93.8896 33.5898 93.5576 33.7656C93.167 33.9707 92.8154 34.1074 92.5029 34.1758C92.0244 34.0195 91.5898 33.751 91.1992 33.3701C90.8184 32.9795 90.4668 32.5156 90.1445 31.9785C89.832 31.4316 89.5439 30.8311 89.2803 30.1768C89.0166 29.5225 88.7676 28.8486 88.5332 28.1553C88.3379 28.4873 88.0986 28.8389 87.8154 29.21C87.542 29.5811 87.2441 29.9521 86.9219 30.3232C86.5996 30.6846 86.2676 31.0361 85.9258 31.3779C85.584 31.71 85.2568 32.0029 84.9443 32.2568C85.1494 32.2764 85.3398 32.291 85.5156 32.3008C85.7012 32.3105 85.877 32.3154 86.043 32.3154C86.6484 32.3154 87.1074 32.2764 87.4199 32.1982C87.7324 32.1201 87.9082 32.0713 87.9473 32.0518C87.3906 32.4912 86.917 32.8574 86.5264 33.1504C86.1357 33.4336 85.7695 33.6582 85.4277 33.8242C85.0957 33.9902 84.7637 34.1025 84.4316 34.1611C84.1094 34.2295 83.7285 34.2637 83.2891 34.2637C82.8008 34.2637 82.2002 34.2344 81.4873 34.1758L83.6553 32.0225C83.7627 32.0518 83.8701 32.0811 83.9775 32.1104C84.0947 32.1299 84.207 32.1494 84.3145 32.1689C84.5293 32.0029 84.7344 31.8076 84.9297 31.583C85.125 31.3486 85.3008 31.1338 85.457 30.9385C85.6328 30.7041 85.7988 30.4648 85.9551 30.2207C86.1797 29.8496 86.4727 29.3467 86.834 28.7119C87.1953 28.0771 87.6055 27.3887 88.0645 26.6465C87.9082 26.1289 87.752 25.6211 87.5957 25.123C87.4395 24.625 87.2783 24.1514 87.1123 23.7021C86.9561 23.2432 86.79 22.8232 86.6143 22.4424C86.4482 22.0518 86.2725 21.7148 86.0869 21.4316C85.9209 21.1875 85.7256 21.0117 85.501 20.9043C85.2861 20.7969 85.0615 20.7432 84.8271 20.7432C84.4463 20.7432 84.0801 20.8457 83.7285 21.0508C83.377 21.2461 83.0889 21.4609 82.8643 21.6953C83.0986 21.3828 83.3574 21.0557 83.6406 20.7139C83.9336 20.3623 84.2461 20.0449 84.5781 19.7617C84.9199 19.4688 85.2764 19.2295 85.6475 19.0439C86.0186 18.8584 86.4043 18.7656 86.8047 18.7656C87.166 18.7656 87.5029 18.8779 87.8154 19.1025C88.1377 19.3271 88.4209 19.7031 88.665 20.2305C88.8115 20.5918 88.9824 21.0996 89.1777 21.7539C89.373 22.3984 89.5928 23.1211 89.8369 23.9219C90.3447 23.1992 90.8477 22.5352 91.3457 21.9297C91.8438 21.3242 92.3271 20.8359 92.7959 20.4648C93.3721 20.0449 93.9043 19.7227 94.3926 19.498C94.8809 19.2734 95.3154 19.1172 95.6963 19.0293C96.0771 18.9414 96.4043 18.9072 96.6777 18.9268C96.9609 18.9365 97.1807 18.9609 97.3369 19Z" fill="#1A4017"/>
<path d="M106.844 29.1367L106.536 30.6455C106.312 30.8311 106.048 31.0654 105.745 31.3486C105.452 31.6221 105.13 31.9102 104.778 32.2129C104.437 32.5156 104.08 32.8135 103.709 33.1064C103.338 33.3896 102.967 33.6338 102.596 33.8389C102.225 34.0342 101.858 34.1709 101.497 34.249C101.146 34.3369 100.818 34.3223 100.516 34.2051C100.32 34.1367 100.149 34.0342 100.003 33.8975C99.8662 33.7607 99.749 33.5654 99.6514 33.3115C99.5635 33.0576 99.4951 32.7354 99.4463 32.3447C99.3975 31.9443 99.373 31.4561 99.373 30.8799C99.373 29.1416 99.4072 27.457 99.4756 25.8262C99.5537 24.1855 99.6465 22.5596 99.7539 20.9482C99.3438 20.9775 98.9385 21.0312 98.5381 21.1094C98.1475 21.1777 97.8447 21.2949 97.6299 21.4609C98.2451 20.9141 98.7285 20.4111 99.0801 19.9521C99.4316 19.4834 99.7002 19.0684 99.8857 18.707L100.062 16.0264L102.581 13.9316L102.273 19.1758C102.488 19.1953 102.688 19.2051 102.874 19.2051C103.06 19.2051 103.24 19.2051 103.416 19.2051C104.266 19.2051 105.052 19.1318 105.774 18.9854C106.507 18.8291 107.21 18.624 107.884 18.3701C107.259 18.8682 106.658 19.2734 106.082 19.5859C105.516 19.8984 104.988 20.1523 104.5 20.3477C104.012 20.5332 103.567 20.6699 103.167 20.7578C102.767 20.8359 102.43 20.8896 102.156 20.9189C102.059 22.6768 101.98 24.1025 101.922 25.1963C101.873 26.2803 101.834 27.1201 101.805 27.7158C101.766 28.4189 101.746 28.9316 101.746 29.2539C101.717 29.7324 101.746 30.1572 101.834 30.5283C101.922 30.8994 102.054 31.207 102.229 31.4512C102.415 31.6953 102.635 31.8662 102.889 31.9639C103.152 32.0615 103.44 32.0713 103.753 31.9932C103.997 31.915 104.28 31.7588 104.603 31.5244C104.876 31.3291 105.198 31.0459 105.569 30.6748C105.95 30.2939 106.375 29.7812 106.844 29.1367ZM97.6299 21.4609L97.542 21.5195L97.6299 21.4609Z" fill="#1A4017"/>
<path d="M112.405 25.8701C112.356 26.4268 112.312 27.0518 112.273 27.7451C112.234 28.3408 112.19 29.0488 112.142 29.8691C112.093 30.6797 112.039 31.5781 111.98 32.5645L109.52 34.6592C109.734 32.667 109.92 30.7676 110.076 28.9609C110.242 27.1543 110.325 25.3721 110.325 23.6143C110.325 22.7256 110.203 22.0713 109.959 21.6514C109.715 21.2217 109.388 21.0068 108.978 21.0068C108.548 21.0068 108.05 21.2266 107.483 21.666C107.61 21.5488 107.762 21.4023 107.938 21.2266C108.123 21.041 108.318 20.8457 108.523 20.6406C108.738 20.4355 108.958 20.2305 109.183 20.0254C109.417 19.8203 109.642 19.6348 109.856 19.4688C110.081 19.3027 110.296 19.1709 110.501 19.0732C110.706 18.9658 110.887 18.9121 111.043 18.9121C111.424 18.9121 111.717 19.0195 111.922 19.2344C112.127 19.4492 112.278 19.7129 112.376 20.0254C112.474 20.3379 112.532 20.665 112.552 21.0068C112.571 21.3486 112.581 21.6416 112.581 21.8857V22.5742C113.099 21.7148 113.709 20.958 114.412 20.3037C115.125 19.6494 115.955 19.1855 116.902 18.9121C117.107 18.8535 117.308 18.8389 117.503 18.8682C117.698 18.8877 117.894 18.9268 118.089 18.9854C118.284 19.0342 118.489 19.0879 118.704 19.1465C118.929 19.2051 119.168 19.2344 119.422 19.2344C119.617 19.2344 119.822 19.21 120.037 19.1611C120.252 19.1123 120.496 19.0293 120.77 18.9121C120.486 19.1953 120.208 19.4736 119.935 19.7471C119.661 20.0205 119.388 20.2695 119.114 20.4941C118.851 20.709 118.587 20.8945 118.323 21.0508C118.069 21.1973 117.825 21.2852 117.591 21.3145C117.337 21.3438 117.093 21.3291 116.858 21.2705C116.634 21.2021 116.399 21.1338 116.155 21.0654C115.921 20.9873 115.672 20.9336 115.408 20.9043C115.145 20.8652 114.861 20.8896 114.559 20.9775C114.354 21.0459 114.148 21.2363 113.943 21.5488C113.748 21.8516 113.553 22.2324 113.357 22.6914C113.172 23.1406 112.996 23.6436 112.83 24.2002C112.674 24.7471 112.532 25.2939 112.405 25.8408V25.8701Z" fill="#1A4017"/>
<path d="M131.088 30.1914C131 30.3281 130.878 30.4941 130.722 30.6895C130.565 30.875 130.409 31.0605 130.253 31.2461C130.077 31.4609 129.887 31.6807 129.682 31.9053C129.428 32.2178 129.154 32.5205 128.861 32.8135C128.568 33.1064 128.275 33.3701 127.982 33.6045C127.699 33.8291 127.421 34.0098 127.147 34.1465C126.874 34.2832 126.63 34.3467 126.415 34.3369C126.005 34.3174 125.722 34.0684 125.565 33.5898C125.409 33.1016 125.331 32.3984 125.331 31.4805C125.331 30.9922 125.346 30.4648 125.375 29.8984C125.404 29.332 125.448 28.6973 125.507 27.9941C125.292 28.3359 125.087 28.6484 124.892 28.9316C124.696 29.2148 124.521 29.4639 124.364 29.6787C124.188 29.9326 124.013 30.1621 123.837 30.3672C123.319 31.002 122.816 31.5635 122.328 32.0518C121.85 32.54 121.405 32.9502 120.995 33.2822C120.595 33.6143 120.238 33.8682 119.926 34.0439C119.623 34.2197 119.384 34.3174 119.208 34.3369C119.032 34.3564 118.817 34.2979 118.563 34.1611C118.319 34.0244 118.085 33.7607 117.86 33.3701C117.636 32.9795 117.44 32.4326 117.274 31.7295C117.118 31.0264 117.045 30.1133 117.055 28.9902C117.064 27.8672 117.182 26.8809 117.406 26.0312C117.641 25.1719 117.938 24.4248 118.3 23.79C118.671 23.1455 119.081 22.5938 119.53 22.1348C119.979 21.666 120.424 21.2607 120.863 20.9189C121.771 20.2256 122.641 19.6738 123.471 19.2637C124.311 18.8438 125.131 18.624 125.932 18.6045C126.195 18.5947 126.454 18.5996 126.708 18.6191C126.933 18.6387 127.172 18.6729 127.426 18.7217C127.689 18.7607 127.938 18.8242 128.173 18.9121L128.598 18.5752C128.539 18.8486 128.476 19.2197 128.407 19.6885C128.349 20.1572 128.29 20.6846 128.231 21.2705C128.173 21.8564 128.114 22.4814 128.056 23.1455C127.997 23.8096 127.943 24.4785 127.895 25.1523C127.855 25.8164 127.816 26.4658 127.777 27.1006C127.738 27.7256 127.704 28.2969 127.675 28.8145C127.655 29.332 127.641 29.7715 127.631 30.1328C127.631 30.4941 127.636 30.7432 127.646 30.8799C127.694 31.4365 127.821 31.8174 128.026 32.0225C128.241 32.2275 128.534 32.208 128.905 31.9639C129.052 31.8467 129.232 31.6611 129.447 31.4072C129.633 31.1924 129.857 30.8994 130.121 30.5283C130.395 30.1475 130.717 29.6543 131.088 29.0488V30.1914ZM126.078 20.8604C125.15 20.7432 124.389 20.6846 123.793 20.6846C123.158 20.6846 122.606 20.7871 122.138 20.9922C121.669 21.1973 121.269 21.4756 120.937 21.8271C120.604 22.1689 120.331 22.5693 120.116 23.0283C119.901 23.4775 119.73 23.9561 119.604 24.4639C119.486 24.9717 119.403 25.4893 119.354 26.0166C119.315 26.5439 119.296 27.0469 119.296 27.5254C119.296 27.6914 119.306 27.916 119.325 28.1992C119.345 28.4824 119.379 28.7852 119.428 29.1074C119.486 29.4297 119.555 29.7568 119.633 30.0889C119.721 30.4209 119.828 30.7236 119.955 30.9971C120.092 31.2607 120.248 31.4805 120.424 31.6562C120.6 31.8223 120.805 31.9053 121.039 31.9053C121.293 31.9053 121.601 31.7686 121.962 31.4951C122.333 31.2119 122.777 30.7383 123.295 30.0742C123.598 29.6641 123.9 29.1709 124.203 28.5947C124.457 28.1064 124.726 27.5059 125.009 26.793C125.302 26.0801 125.561 25.25 125.785 24.3027L126.078 20.8604Z" fill="#1A4017"/>
<path d="M141.796 19.8643C141.698 19.9717 141.557 20.1133 141.371 20.2891C141.205 20.4355 140.976 20.626 140.683 20.8604C140.399 21.085 140.023 21.3535 139.555 21.666C139.672 21.5586 139.735 21.4609 139.745 21.373C139.755 21.2852 139.745 21.207 139.716 21.1387C139.677 21.0605 139.613 20.9873 139.525 20.9189C139.369 20.8311 139.115 20.7627 138.764 20.7139C138.422 20.6553 138.056 20.626 137.665 20.626C137.333 20.626 137.021 20.6504 136.728 20.6992C136.435 20.7383 136.195 20.8115 136.01 20.9189C135.834 21.0264 135.644 21.2852 135.438 21.6953C135.243 22.1055 135.062 22.6035 134.896 23.1895C134.73 23.7754 134.594 24.4199 134.486 25.123C134.379 25.8164 134.325 26.5049 134.325 27.1885C134.325 27.5107 134.34 27.8623 134.369 28.2432C134.408 28.624 134.467 29.0049 134.545 29.3857C134.623 29.7568 134.73 30.1182 134.867 30.4697C135.004 30.8115 135.175 31.1143 135.38 31.3779C135.585 31.6416 135.824 31.8467 136.098 31.9932C136.371 32.1396 136.693 32.1982 137.064 32.1689C137.299 32.1299 137.562 32.0273 137.855 31.8613C138.1 31.7246 138.383 31.5146 138.705 31.2314C139.037 30.9385 139.389 30.5332 139.76 30.0156L140.99 29.6494C140.473 30.2354 140.009 30.7383 139.599 31.1582C139.188 31.5684 138.842 31.9053 138.559 32.1689C138.227 32.4814 137.929 32.7305 137.665 32.916C137.343 33.1406 137.04 33.3457 136.757 33.5312C136.474 33.707 136.195 33.8584 135.922 33.9854C135.658 34.1025 135.395 34.1855 135.131 34.2344C134.867 34.2832 134.599 34.293 134.325 34.2637C134.091 34.2441 133.837 34.1123 133.563 33.8682C133.3 33.624 133.051 33.2871 132.816 32.8574C132.582 32.418 132.387 31.8906 132.23 31.2754C132.074 30.6602 131.996 29.9668 131.996 29.1953C131.996 28.3555 132.074 27.5059 132.23 26.6465C132.396 25.7871 132.641 24.9619 132.963 24.1709C133.285 23.3701 133.695 22.6328 134.193 21.959C134.691 21.2754 135.277 20.6992 135.951 20.2305C136.303 19.9863 136.684 19.7715 137.094 19.5859C137.514 19.4004 137.929 19.249 138.339 19.1318C138.759 19.0146 139.159 18.9316 139.54 18.8828C139.931 18.834 140.272 18.8145 140.565 18.8242C141.151 18.8535 141.547 18.9658 141.752 19.1611C141.967 19.3467 141.981 19.5811 141.796 19.8643Z" fill="#1A4017"/>
<path d="M151.844 29.1367L151.536 30.6455C151.312 30.8311 151.048 31.0654 150.745 31.3486C150.452 31.6221 150.13 31.9102 149.778 32.2129C149.437 32.5156 149.08 32.8135 148.709 33.1064C148.338 33.3896 147.967 33.6338 147.596 33.8389C147.225 34.0342 146.858 34.1709 146.497 34.249C146.146 34.3369 145.818 34.3223 145.516 34.2051C145.32 34.1367 145.149 34.0342 145.003 33.8975C144.866 33.7607 144.749 33.5654 144.651 33.3115C144.563 33.0576 144.495 32.7354 144.446 32.3447C144.397 31.9443 144.373 31.4561 144.373 30.8799C144.373 29.1416 144.407 27.457 144.476 25.8262C144.554 24.1855 144.646 22.5596 144.754 20.9482C144.344 20.9775 143.938 21.0312 143.538 21.1094C143.147 21.1777 142.845 21.2949 142.63 21.4609C143.245 20.9141 143.729 20.4111 144.08 19.9521C144.432 19.4834 144.7 19.0684 144.886 18.707L145.062 16.0264L147.581 13.9316L147.273 19.1758C147.488 19.1953 147.688 19.2051 147.874 19.2051C148.06 19.2051 148.24 19.2051 148.416 19.2051C149.266 19.2051 150.052 19.1318 150.774 18.9854C151.507 18.8291 152.21 18.624 152.884 18.3701C152.259 18.8682 151.658 19.2734 151.082 19.5859C150.516 19.8984 149.988 20.1523 149.5 20.3477C149.012 20.5332 148.567 20.6699 148.167 20.7578C147.767 20.8359 147.43 20.8896 147.156 20.9189C147.059 22.6768 146.98 24.1025 146.922 25.1963C146.873 26.2803 146.834 27.1201 146.805 27.7158C146.766 28.4189 146.746 28.9316 146.746 29.2539C146.717 29.7324 146.746 30.1572 146.834 30.5283C146.922 30.8994 147.054 31.207 147.229 31.4512C147.415 31.6953 147.635 31.8662 147.889 31.9639C148.152 32.0615 148.44 32.0713 148.753 31.9932C148.997 31.915 149.28 31.7588 149.603 31.5244C149.876 31.3291 150.198 31.0459 150.569 30.6748C150.95 30.2939 151.375 29.7812 151.844 29.1367ZM142.63 21.4609L142.542 21.5195L142.63 21.4609Z" fill="#1A4017"/>
<path d="M160.701 19.3955C160.652 19.5127 160.54 19.6592 160.364 19.835C160.218 19.9912 159.998 20.1963 159.705 20.4502C159.422 20.6943 159.021 21.002 158.504 21.373C158.514 21.207 158.489 21.0703 158.431 20.9629C158.382 20.8457 158.318 20.7578 158.24 20.6992C158.152 20.6309 158.055 20.582 157.947 20.5527C157.322 20.4355 156.829 20.4355 156.468 20.5527C156.38 20.5918 156.312 20.6895 156.263 20.8457C156.224 20.9922 156.204 21.1777 156.204 21.4023C156.204 21.9395 156.302 22.4229 156.497 22.8525C156.702 23.2725 156.956 23.668 157.259 24.0391C157.562 24.4004 157.889 24.7471 158.24 25.0791C158.592 25.4111 158.919 25.7529 159.222 26.1045C159.524 26.4463 159.773 26.8076 159.969 27.1885C160.174 27.5693 160.276 27.9893 160.276 28.4482C160.276 28.8389 160.193 29.2441 160.027 29.6641C159.871 30.0742 159.627 30.4502 159.295 30.792C159.012 31.085 158.704 31.3877 158.372 31.7002C158.05 32.0127 157.713 32.3105 157.361 32.5938C157.02 32.877 156.668 33.1357 156.307 33.3701C155.945 33.6045 155.589 33.7949 155.237 33.9414C154.642 34.1562 154.07 34.2637 153.523 34.2637C153.152 34.2637 152.83 34.21 152.557 34.1025C152.283 33.9951 152.117 33.8291 152.059 33.6045C152.01 33.4287 152.063 33.2139 152.22 32.96C152.376 32.6963 152.571 32.4375 152.806 32.1836C153.04 31.9199 153.284 31.6758 153.538 31.4512C153.802 31.2168 154.007 31.0361 154.153 30.9092C154.134 31.3779 154.241 31.7148 154.476 31.9199C154.72 32.1152 155.105 32.2275 155.633 32.2568C155.896 32.2764 156.175 32.2617 156.468 32.2129C156.761 32.1543 157.029 32.0713 157.273 31.9639C157.527 31.8467 157.732 31.7002 157.889 31.5244C158.055 31.3486 158.133 31.1436 158.123 30.9092C158.104 30.3623 157.986 29.8643 157.771 29.415C157.566 28.9561 157.308 28.5264 156.995 28.126C156.692 27.7158 156.365 27.3203 156.014 26.9395C155.672 26.5488 155.35 26.1533 155.047 25.7529C154.754 25.3525 154.505 24.9277 154.3 24.4785C154.104 24.0293 154.007 23.541 154.007 23.0137C154.007 22.7891 154.031 22.5742 154.08 22.3691C154.129 22.1641 154.217 21.9688 154.344 21.7832C154.568 21.4512 154.876 21.1045 155.267 20.7432C155.657 20.3818 156.072 20.0498 156.512 19.7471C156.951 19.4443 157.386 19.1904 157.815 18.9854C158.245 18.7705 158.616 18.6436 158.929 18.6045C159.231 18.5654 159.5 18.5654 159.734 18.6045C159.979 18.6338 160.179 18.6875 160.335 18.7656C160.491 18.8438 160.599 18.9414 160.657 19.0586C160.726 19.166 160.74 19.2783 160.701 19.3955Z" fill="#1A4017"/>
</g>
<defs>
<clipPath id="clip0_413_74">
<rect width="162" height="46" fill="white"/>
</clipPath>
</defs>
</svg>
