<svg width="447" height="402" viewBox="0 0 447 402" fill="none" xmlns="http://www.w3.org/2000/svg">
<path fill-rule="evenodd" clip-rule="evenodd" d="M291.985 120C295.445 136.436 299.648 137.285 306.829 149.634C308.696 152.842 310 156.255 310 160.171C310 165.61 308.234 170.273 304.699 174.16C301.15 178.047 296.921 180 291.993 180C287.079 180 282.858 178.047 279.31 174.16C275.77 170.273 274 165.61 274 160.171C274 156.235 275.326 152.798 277.21 149.57C284.404 137.251 288.59 136.382 291.985 120ZM281.716 155.049C282.722 154.946 283.609 155.771 283.697 156.885C283.926 159.58 284.457 162.065 285.472 164.209C286.451 166.279 287.909 168.062 290.017 169.434C290.887 170 291.177 171.245 290.667 172.207C290.158 173.174 289.038 173.496 288.173 172.93C285.428 171.143 283.526 168.818 282.239 166.099C280.944 163.359 280.324 160.313 280.065 157.251C279.973 156.143 280.72 155.151 281.716 155.049Z" fill="#FF4242"/>
<path fill-rule="evenodd" clip-rule="evenodd" d="M196.529 60.621C183.849 59.5908 161.993 58.9858 141.059 62.3793C120.125 65.7729 100.114 73.1648 83.9964 84.2403C67.8785 95.3158 55.6551 110.074 48.7368 124.246C41.8185 138.419 40.2055 152.005 39.7854 165.828C39.3654 179.652 40.1381 193.712 45.561 214.61C50.9839 235.509 61.0563 263.244 75.6151 289.383C90.1739 315.521 109.218 340.061 127.71 356.728C146.202 373.394 164.141 382.186 181.399 388.888C198.657 395.59 215.234 400.201 238.518 401.347C261.802 402.493 291.792 400.175 315.289 395.212C338.786 390.248 355.788 382.64 372.941 369.567C390.095 356.494 407.399 337.958 419.518 321.71C431.638 305.462 438.571 291.502 442.618 282.13C446.665 272.757 447.826 267.971 444.61 263.278C441.394 258.585 433.8 253.985 426.843 250.837C419.886 247.69 413.565 245.995 413.412 246.861C413.259 247.727 419.274 251.155 424.209 254.444C429.145 257.734 433.001 260.885 432.99 263.772C432.978 266.66 429.099 269.284 419.42 273.064C409.741 276.844 394.262 281.78 361.883 285.121C329.504 288.462 280.227 290.209 242.701 288.779C205.176 287.349 179.404 282.741 158.611 277.464C137.817 272.186 122.002 266.239 114.492 261.313C106.982 256.386 107.777 252.481 116.021 248.053C124.265 243.625 139.956 238.674 157.243 235.109C174.529 231.544 193.409 229.364 208.739 228.395C224.069 227.426 235.848 227.669 250.644 228.235C265.44 228.801 283.252 229.689 302.772 232.062C322.293 234.435 343.521 238.292 358.306 241.746C373.091 245.199 381.431 248.25 380.087 247.382C378.743 246.514 367.714 241.727 356.654 238.012C345.593 234.297 334.501 231.654 320.855 229.189C307.209 226.725 291.01 224.44 267.011 223.772C243.012 223.103 211.214 224.051 184.969 226.427C158.724 228.803 138.034 232.607 122.734 234.002C107.434 235.396 97.5257 234.381 88.4514 228.495C79.377 222.609 71.1375 211.853 66.366 198.715C61.5945 185.576 60.2916 170.057 60.6576 156.986C61.0235 143.914 63.0584 133.293 66.316 123.334C69.5735 113.374 74.0537 104.078 81.648 96.4879C89.2423 88.8975 99.9497 83.0138 108.186 78.4795C116.422 73.9452 122.186 70.7607 138.612 68.1809C155.038 65.6011 182.123 63.6261 195.083 62.3963C208.042 61.1664 209.209 61.6512 196.529 60.621Z" fill="#C2C2C2"/>
<path fill-rule="evenodd" clip-rule="evenodd" d="M106.74 83.098C109.48 88.0645 115.396 96.8615 134.133 102.712C152.87 108.562 184.425 111.464 207.647 111.649C230.869 111.834 245.753 109.302 257.765 106.478C269.778 103.654 278.916 100.54 295.177 96.5934C311.437 92.6468 334.818 87.8683 351.895 87.7876C368.973 87.7069 379.746 92.3236 385.433 96.112C391.121 99.9005 391.724 102.86 391.462 102.137C391.199 101.414 390.071 97.0087 384.728 92.481C379.386 87.9534 369.829 83.3043 359.375 79.7833C348.921 76.2623 337.571 73.8697 321.036 67.9935C304.502 62.1173 282.784 52.7577 266.116 44.9946C249.447 37.2316 237.828 31.0653 221.52 26.6803C205.213 22.2952 184.218 19.6918 167.003 19.8699C149.788 20.048 136.353 23.0078 126.011 28.2437C115.669 33.4795 108.42 40.991 104.107 49.2114C99.7951 57.4318 98.4199 66.36 99.9354 69.2173C101.451 72.0747 105.857 68.8615 115.399 65.6968C124.94 62.532 139.616 59.416 152.935 57.2766C166.254 55.1371 178.213 53.9745 186.607 53.7126C195.001 53.4507 199.828 54.0894 196.57 54.7377C193.312 55.3861 181.968 56.0441 172.516 57.1009C163.064 58.1577 155.504 59.6133 146.296 61.7773C137.089 63.9413 126.235 66.8136 119.057 69.2791C111.879 71.7446 108.378 73.8032 106.408 75.4C104.438 76.9969 104.001 78.1316 106.74 83.098Z" fill="#C2C2C2"/>
<path fill-rule="evenodd" clip-rule="evenodd" d="M275.546 218.157C284.384 218.392 302.971 219.654 318.442 221.455C333.912 223.257 346.266 225.598 359.41 228.525C372.554 231.453 386.487 234.966 391.858 236.834C397.228 238.703 394.036 238.927 388.406 237.932C382.776 236.937 374.708 234.723 363.961 232.43C353.214 230.136 339.789 227.763 326.496 225.756C313.202 223.748 300.042 222.105 290.403 221.124C280.764 220.143 274.647 219.823 271.133 219.268C267.619 218.713 266.708 217.922 275.546 218.157Z" fill="#C2C2C2"/>
<path fill-rule="evenodd" clip-rule="evenodd" d="M94.4518 82.6362C94.7967 77.3669 92.5575 68.4393 91.0016 62.8608C89.4458 57.2822 88.5749 55.0593 86.9959 52.3198C85.417 49.5802 83.1291 46.3228 80.303 43.5012C77.4769 40.6797 74.1146 38.2957 69.4509 37.3616C64.7872 36.4274 58.8247 36.9442 55.6178 36.8866C52.4109 36.829 51.6594 35.7767 52.5834 35.6443C53.5074 35.5119 62.039 35.2928 66.5148 35.3881C70.9906 35.4834 72.5658 35.841 68.8126 33.0418C65.0593 30.2426 53.7554 22.7006 50.3368 20.0501C46.9181 17.3995 50.1552 18.8201 54.1338 20.8665C58.1123 22.9128 62.8306 25.584 69.7106 30.9843C76.5906 36.3846 85.6292 44.5116 89.369 52.1796C93.1087 59.8477 91.5487 67.0548 92.7409 64.7934C93.9332 62.532 97.8777 50.8021 97.7186 41.8492C97.5594 32.8963 93.296 26.721 87.718 20.9581C82.1401 15.1951 75.2479 9.84504 67.0872 6.43221C58.9266 3.01938 49.4982 1.54424 40.233 0.769125C30.9678 -0.00598532 21.8663 -0.0810002 15.188 0.0545098C8.50972 0.19003 4.25481 0.536081 0 0.882131C3.20981 3.57644 6.42007 6.27113 9.89929 11.5934C13.3785 16.9156 17.1271 24.8652 21.5773 32.5032C26.0275 40.1412 31.179 47.4672 37.4584 52.918C43.7378 58.3689 51.1448 61.9447 58.6537 64.1873C66.1625 66.43 73.7728 67.3397 78.1699 67.7407C82.5671 68.1418 83.7511 68.0344 84.9359 69.8424C86.1207 71.6505 87.3063 75.3736 87.8582 79.2386C88.4101 83.1036 88.3288 87.1115 89.7532 88.3119C91.1777 89.5123 94.1068 87.9055 94.4518 82.6362Z" fill="#C2C2C2"/>
</svg>
